M48
; DRILL file {KiCad (5.1.6)-1} date 10/03/20 13:42:31
; FORMAT={-:-/ absolute / inch / decimal}
; #@! TF.CreationDate,2020-10-03T13:42:31-07:00
; #@! TF.GenerationSoftware,Kicad,Pcbnew,(5.1.6)-1
; #@! TF.FileFunction,Plated,1,2,PTH
FMAT,2
INCH
T1C0.0276
T2C0.0295
T3C0.0315
T4C0.0360
T5C0.0394
T6C0.0512
T7C0.1378
%
G90
G05
T1
X4.93Y-3.35
X5.47Y-3.35
X5.48Y-3.64
X5.48Y-3.9
X5.74Y-3.62
X5.8Y-3.36
X5.98Y-3.27
X6.22Y-3.33
X6.29Y-3.07
X6.98Y-3.44
T2
X6.705Y-3.545
X6.755Y-3.495
X6.805Y-3.545
T3
X5.87Y-3.49
X5.87Y-3.59
X5.87Y-3.69
X5.87Y-3.79
X6.17Y-3.49
X6.17Y-3.59
X6.17Y-3.69
X6.17Y-3.79
X6.47Y-2.87
X6.47Y-3.27
X4.67Y-3.8416
X4.67Y-3.94
X5.0416Y-4.48
X5.14Y-4.48
X6.69Y-2.87
X6.69Y-3.27
X6.46Y-4.77
X6.5584Y-4.77
X4.96Y-3.2
X5.36Y-3.2
X6.6816Y-3.86
X6.78Y-3.86
X4.85Y-3.49
X4.85Y-3.79
X4.95Y-3.49
X4.95Y-3.79
X5.05Y-3.49
X5.05Y-3.79
X5.15Y-3.49
X5.15Y-3.79
T4
X5.43Y-4.775
X6.78Y-4.16
X6.91Y-2.87
X7.14Y-3.57
X7.12Y-3.86
X7.12Y-3.9387
X6.46Y-3.59
X5.9Y-4.78
X4.875Y-4.775
X5.87Y-3.26
T5
X4.4Y-3.8806
X4.4Y-3.9806
T6
X5.36Y-4.1
X5.36Y-4.2969
X5.5569Y-4.1984
X5.9331Y-2.91
X6.0316Y-3.1069
X6.13Y-2.91
T7
X7.15Y-2.915
X4.435Y-2.9
X7.15Y-4.87
X4.375Y-4.865
T0
M30
