%TF.GenerationSoftware,KiCad,Pcbnew,(5.1.6)-1*%
%TF.CreationDate,2020-10-03T13:42:35-07:00*%
%TF.ProjectId,mini project newest,6d696e69-2070-4726-9f6a-656374206e65,rev?*%
%TF.SameCoordinates,Original*%
%TF.FileFunction,Copper,L2,Bot*%
%TF.FilePolarity,Positive*%
%FSLAX46Y46*%
G04 Gerber Fmt 4.6, Leading zero omitted, Abs format (unit mm)*
G04 Created by KiCad (PCBNEW (5.1.6)-1) date 2020-10-03 13:42:35*
%MOMM*%
%LPD*%
G01*
G04 APERTURE LIST*
%TA.AperFunction,ComponentPad*%
%ADD10C,0.100000*%
%TD*%
%TA.AperFunction,ComponentPad*%
%ADD11C,1.300000*%
%TD*%
%TA.AperFunction,ComponentPad*%
%ADD12O,1.700000X1.700000*%
%TD*%
%TA.AperFunction,ComponentPad*%
%ADD13R,1.700000X1.700000*%
%TD*%
%TA.AperFunction,ComponentPad*%
%ADD14O,1.600000X1.600000*%
%TD*%
%TA.AperFunction,ComponentPad*%
%ADD15R,1.600000X1.600000*%
%TD*%
%TA.AperFunction,ComponentPad*%
%ADD16R,1.676400X1.676400*%
%TD*%
%TA.AperFunction,ComponentPad*%
%ADD17C,2.340000*%
%TD*%
%TA.AperFunction,ComponentPad*%
%ADD18C,1.600000*%
%TD*%
%TA.AperFunction,ComponentPad*%
%ADD19O,1.350000X1.350000*%
%TD*%
%TA.AperFunction,ComponentPad*%
%ADD20R,1.350000X1.350000*%
%TD*%
%TA.AperFunction,ComponentPad*%
%ADD21C,5.399999*%
%TD*%
%TA.AperFunction,ViaPad*%
%ADD22C,0.800000*%
%TD*%
%TA.AperFunction,Conductor*%
%ADD23C,0.250000*%
%TD*%
%TA.AperFunction,Conductor*%
%ADD24C,0.701040*%
%TD*%
%TA.AperFunction,Conductor*%
%ADD25C,0.254000*%
%TD*%
G04 APERTURE END LIST*
%TA.AperFunction,ComponentPad*%
D10*
%TO.P,Q1,1*%
%TO.N,Earth*%
G36*
X170307000Y-90761420D02*
G01*
X169588580Y-90043000D01*
X170307000Y-89324580D01*
X171025420Y-90043000D01*
X170307000Y-90761420D01*
G37*
%TD.AperFunction*%
D11*
%TO.P,Q1,3*%
%TO.N,Net-(C4-Pad2)*%
X172847000Y-90043000D03*
%TO.P,Q1,2*%
%TO.N,Net-(Q1-Pad2)*%
X171577000Y-88773000D03*
%TD*%
D12*
%TO.P,J1,2*%
%TO.N,Earth*%
X111760000Y-101108000D03*
D13*
%TO.P,J1,1*%
%TO.N,+9V*%
X111760000Y-98568000D03*
%TD*%
D14*
%TO.P,U1,8*%
%TO.N,+9V*%
X130810000Y-96266000D03*
%TO.P,U1,4*%
X123190000Y-88646000D03*
%TO.P,U1,7*%
%TO.N,Net-(R1-Pad1)*%
X128270000Y-96266000D03*
%TO.P,U1,3*%
%TO.N,Net-(TP4-Pad1)*%
X125730000Y-88646000D03*
%TO.P,U1,6*%
%TO.N,Net-(C2-Pad1)*%
X125730000Y-96266000D03*
%TO.P,U1,2*%
X128270000Y-88646000D03*
%TO.P,U1,5*%
%TO.N,Net-(C1-Pad1)*%
X123190000Y-96266000D03*
D15*
%TO.P,U1,1*%
%TO.N,Earth*%
X130810000Y-88646000D03*
%TD*%
D14*
%TO.P,U2,8*%
%TO.N,+9V*%
X149098000Y-96266000D03*
%TO.P,U2,4*%
X156718000Y-88646000D03*
%TO.P,U2,7*%
%TO.N,Net-(R2-Pad2)*%
X149098000Y-93726000D03*
%TO.P,U2,3*%
%TO.N,Net-(Q1-Pad2)*%
X156718000Y-91186000D03*
%TO.P,U2,6*%
%TO.N,Net-(C3-Pad1)*%
X149098000Y-91186000D03*
%TO.P,U2,2*%
X156718000Y-93726000D03*
%TO.P,U2,5*%
%TO.N,Net-(TP4-Pad1)*%
X149098000Y-88646000D03*
D15*
%TO.P,U2,1*%
%TO.N,Earth*%
X156718000Y-96266000D03*
%TD*%
D16*
%TO.P,TP8,1*%
%TO.N,Net-(C4-Pad1)*%
X172212000Y-105664000D03*
%TD*%
%TO.P,TP7,1*%
%TO.N,Net-(C4-Pad2)*%
X181356000Y-90678000D03*
%TD*%
%TO.P,TP6,1*%
%TO.N,+9V*%
X175514000Y-72898000D03*
%TD*%
%TO.P,TP5,1*%
%TO.N,Net-(Q1-Pad2)*%
X164084000Y-91186000D03*
%TD*%
%TO.P,TP4,1*%
%TO.N,Net-(TP4-Pad1)*%
X149098000Y-82804000D03*
%TD*%
%TO.P,TP3,1*%
%TO.N,Earth*%
X149860000Y-121412000D03*
%TD*%
%TO.P,TP2,1*%
%TO.N,Earth*%
X137922000Y-121285000D03*
%TD*%
%TO.P,TP1,1*%
%TO.N,Earth*%
X123825000Y-121285000D03*
%TD*%
D17*
%TO.P,RV2,1*%
%TO.N,Net-(R2-Pad2)*%
X155702000Y-73914000D03*
%TO.P,RV2,2*%
%TO.N,Net-(C3-Pad1)*%
X153202000Y-78914000D03*
%TO.P,RV2,3*%
X150702000Y-73914000D03*
%TD*%
%TO.P,RV1,1*%
%TO.N,Net-(R1-Pad1)*%
X136144000Y-104140000D03*
%TO.P,RV1,2*%
%TO.N,Net-(C2-Pad1)*%
X141144000Y-106640000D03*
%TO.P,RV1,3*%
X136144000Y-109140000D03*
%TD*%
D14*
%TO.P,R3,2*%
%TO.N,Net-(C4-Pad2)*%
X169926000Y-83058000D03*
D18*
%TO.P,R3,1*%
%TO.N,+9V*%
X169926000Y-72898000D03*
%TD*%
D14*
%TO.P,R2,2*%
%TO.N,Net-(R2-Pad2)*%
X164338000Y-72898000D03*
D18*
%TO.P,R2,1*%
%TO.N,+9V*%
X164338000Y-83058000D03*
%TD*%
D14*
%TO.P,R1,2*%
%TO.N,+9V*%
X125984000Y-81280000D03*
D18*
%TO.P,R1,1*%
%TO.N,Net-(R1-Pad1)*%
X136144000Y-81280000D03*
%TD*%
D19*
%TO.P,LS1,2*%
%TO.N,Earth*%
X180848000Y-100044000D03*
D20*
%TO.P,LS1,1*%
%TO.N,Net-(C4-Pad1)*%
X180848000Y-98044000D03*
%TD*%
D21*
%TO.P,H3,1*%
%TO.N,Earth*%
X181610000Y-123698000D03*
%TD*%
D18*
%TO.P,C4,2*%
%TO.N,Net-(C4-Pad2)*%
X169712000Y-98044000D03*
%TO.P,C4,1*%
%TO.N,Net-(C4-Pad1)*%
X172212000Y-98044000D03*
%TD*%
%TO.P,C3,2*%
%TO.N,Earth*%
X166584000Y-121158000D03*
%TO.P,C3,1*%
%TO.N,Net-(C3-Pad1)*%
X164084000Y-121158000D03*
%TD*%
%TO.P,C2,2*%
%TO.N,Earth*%
X128056000Y-113792000D03*
%TO.P,C2,1*%
%TO.N,Net-(C2-Pad1)*%
X130556000Y-113792000D03*
%TD*%
%TO.P,C1,2*%
%TO.N,Earth*%
X118618000Y-97576000D03*
%TO.P,C1,1*%
%TO.N,Net-(C1-Pad1)*%
X118618000Y-100076000D03*
%TD*%
D21*
%TO.P,H1,1*%
%TO.N,Earth*%
X112649000Y-73660000D03*
%TD*%
%TO.P,H2,1*%
%TO.N,Earth*%
X181610000Y-74041000D03*
%TD*%
%TO.P,H4,1*%
%TO.N,Earth*%
X111125000Y-123571000D03*
%TD*%
D22*
%TO.N,Earth*%
X139192000Y-92456000D03*
X138938000Y-85090000D03*
X139192000Y-99060000D03*
X157988000Y-84582000D03*
X159766000Y-77978000D03*
X151892000Y-83058000D03*
X147320000Y-85344000D03*
X145796000Y-91948000D03*
X125222000Y-85090000D03*
X177292000Y-87376000D03*
%TD*%
D23*
%TO.N,Earth*%
X166290000Y-120951000D02*
X166370000Y-121031000D01*
D24*
X118618000Y-97576000D02*
X118618000Y-94742000D01*
X118618000Y-94742000D02*
X120904000Y-92456000D01*
X130810000Y-89139529D02*
X130810000Y-88646000D01*
X127493529Y-92456000D02*
X130810000Y-89139529D01*
X120904000Y-92456000D02*
X127493529Y-92456000D01*
X179070000Y-121158000D02*
X181610000Y-123698000D01*
X166584000Y-121158000D02*
X179070000Y-121158000D01*
%TO.N,Net-(C1-Pad1)*%
X118618000Y-100076000D02*
X121412000Y-100076000D01*
X123190000Y-98298000D02*
X123190000Y-96266000D01*
X121412000Y-100076000D02*
X123190000Y-98298000D01*
%TO.N,Net-(C2-Pad1)*%
X135208000Y-109140000D02*
X136144000Y-109140000D01*
X130556000Y-113792000D02*
X135208000Y-109140000D01*
X125730000Y-98726000D02*
X136144000Y-109140000D01*
X125730000Y-96266000D02*
X125730000Y-98726000D01*
X141144000Y-106640000D02*
X138564000Y-109220000D01*
X136224000Y-109220000D02*
X136144000Y-109140000D01*
X138564000Y-109220000D02*
X136224000Y-109220000D01*
X141144000Y-106640000D02*
X141144000Y-106506000D01*
X141144000Y-106506000D02*
X142240000Y-105410000D01*
X142240000Y-105410000D02*
X142240000Y-100076000D01*
X142163790Y-99999790D02*
X142163790Y-82958828D01*
X142240000Y-100076000D02*
X142163790Y-99999790D01*
X142163790Y-82958828D02*
X137513172Y-78308210D01*
X137513172Y-78308210D02*
X131218828Y-78308210D01*
X131218828Y-78308210D02*
X128270000Y-81257038D01*
X128270000Y-81257038D02*
X128270000Y-88646000D01*
%TO.N,Net-(C3-Pad1)*%
X153202000Y-76414000D02*
X150702000Y-73914000D01*
X153202000Y-78914000D02*
X153202000Y-76414000D01*
X153202000Y-78914000D02*
X149000210Y-78914000D01*
X149000210Y-78914000D02*
X145364210Y-82550000D01*
X145364210Y-87945739D02*
X148604471Y-91186000D01*
X148604471Y-91186000D02*
X149098000Y-91186000D01*
X145364210Y-82550000D02*
X145364210Y-87945739D01*
X158027426Y-93726000D02*
X156718000Y-93726000D01*
X164084000Y-99782574D02*
X158027426Y-93726000D01*
X164084000Y-121158000D02*
X164084000Y-99782574D01*
%TO.N,Net-(C4-Pad1)*%
X173343370Y-98044000D02*
X180848000Y-98044000D01*
X172212000Y-98044000D02*
X173343370Y-98044000D01*
X179471960Y-98044000D02*
X180848000Y-98044000D01*
X172212000Y-98044000D02*
X172212000Y-105664000D01*
%TO.N,Net-(C4-Pad2)*%
X181356000Y-90678000D02*
X181356000Y-86614000D01*
X177800000Y-83058000D02*
X169926000Y-83058000D01*
X181356000Y-86614000D02*
X177800000Y-83058000D01*
X169712000Y-98044000D02*
X169712000Y-96988000D01*
X169712000Y-96988000D02*
X172720000Y-93980000D01*
X178054000Y-93980000D02*
X181356000Y-90678000D01*
X174752000Y-91948000D02*
X172982765Y-90178765D01*
X174752000Y-93980000D02*
X174752000Y-91948000D01*
X174752000Y-93980000D02*
X178054000Y-93980000D01*
X172720000Y-93980000D02*
X174752000Y-93980000D01*
%TO.N,+9V*%
X169926000Y-72898000D02*
X175514000Y-72898000D01*
X158750000Y-88646000D02*
X164338000Y-83058000D01*
X156718000Y-88646000D02*
X158750000Y-88646000D01*
X166878000Y-80518000D02*
X164338000Y-83058000D01*
X169926000Y-72898000D02*
X166878000Y-75946000D01*
X166878000Y-75946000D02*
X166878000Y-80518000D01*
X123190000Y-84074000D02*
X125984000Y-81280000D01*
X123190000Y-88646000D02*
X123190000Y-84074000D01*
X125984000Y-81280000D02*
X130556000Y-76708000D01*
X130556000Y-76708000D02*
X138176000Y-76708000D01*
X138176000Y-76708000D02*
X143764000Y-82296000D01*
X149098000Y-96266000D02*
X146558000Y-96266000D01*
X143764000Y-93472000D02*
X143764000Y-82296000D01*
X146558000Y-96266000D02*
X143764000Y-93472000D01*
X111760000Y-98568000D02*
X111760000Y-94742000D01*
X117856000Y-88646000D02*
X123190000Y-88646000D01*
X111760000Y-94742000D02*
X117856000Y-88646000D01*
%TO.N,Net-(R1-Pad1)*%
X128270000Y-96266000D02*
X128270000Y-98552000D01*
X133858000Y-104140000D02*
X136144000Y-104140000D01*
X128270000Y-98552000D02*
X133858000Y-104140000D01*
X136144000Y-81280000D02*
X136144000Y-104140000D01*
%TO.N,Net-(R2-Pad2)*%
X155702000Y-73914000D02*
X157403790Y-72212210D01*
X163652210Y-72212210D02*
X164338000Y-72898000D01*
X157403790Y-72212210D02*
X163652210Y-72212210D01*
X150229370Y-93726000D02*
X152908000Y-91047370D01*
X149098000Y-93726000D02*
X150229370Y-93726000D01*
X152908000Y-91047370D02*
X152908000Y-85852000D01*
X155702000Y-83058000D02*
X155702000Y-73914000D01*
X152908000Y-85852000D02*
X155702000Y-83058000D01*
%TO.N,Net-(TP4-Pad1)*%
X149098000Y-88646000D02*
X149098000Y-82804000D01*
%TO.N,Net-(Q1-Pad2)*%
X164084000Y-91186000D02*
X156718000Y-91186000D01*
X170688000Y-86106000D02*
X171577000Y-86995000D01*
X171577000Y-86995000D02*
X171577000Y-88143319D01*
X164084000Y-91186000D02*
X164084000Y-89916000D01*
X167894000Y-86106000D02*
X170688000Y-86106000D01*
X164084000Y-89916000D02*
X167894000Y-86106000D01*
%TD*%
D25*
%TO.N,Earth*%
G36*
X187071000Y-129667000D02*
G01*
X106299000Y-129667000D01*
X106299000Y-125916373D01*
X108959232Y-125916373D01*
X109259412Y-126354827D01*
X109838356Y-126665294D01*
X110466746Y-126856850D01*
X111120431Y-126922132D01*
X111774293Y-126858633D01*
X112403202Y-126668792D01*
X112982992Y-126359903D01*
X112990588Y-126354827D01*
X113203819Y-126043373D01*
X179444232Y-126043373D01*
X179744412Y-126481827D01*
X180323356Y-126792294D01*
X180951746Y-126983850D01*
X181605431Y-127049132D01*
X182259293Y-126985633D01*
X182888202Y-126795792D01*
X183467992Y-126486903D01*
X183475588Y-126481827D01*
X183775768Y-126043373D01*
X181610000Y-123877605D01*
X179444232Y-126043373D01*
X113203819Y-126043373D01*
X113290768Y-125916373D01*
X111125000Y-123750605D01*
X108959232Y-125916373D01*
X106299000Y-125916373D01*
X106299000Y-123566431D01*
X107773868Y-123566431D01*
X107837367Y-124220293D01*
X108027208Y-124849202D01*
X108336097Y-125428992D01*
X108341173Y-125436588D01*
X108779627Y-125736768D01*
X110945395Y-123571000D01*
X111304605Y-123571000D01*
X113470373Y-125736768D01*
X113908827Y-125436588D01*
X114219294Y-124857644D01*
X114410850Y-124229254D01*
X114464361Y-123693431D01*
X178258868Y-123693431D01*
X178322367Y-124347293D01*
X178512208Y-124976202D01*
X178821097Y-125555992D01*
X178826173Y-125563588D01*
X179264627Y-125863768D01*
X181430395Y-123698000D01*
X181789605Y-123698000D01*
X183955373Y-125863768D01*
X184393827Y-125563588D01*
X184704294Y-124984644D01*
X184895850Y-124356254D01*
X184961132Y-123702569D01*
X184897633Y-123048707D01*
X184707792Y-122419798D01*
X184398903Y-121840008D01*
X184393827Y-121832412D01*
X183955373Y-121532232D01*
X181789605Y-123698000D01*
X181430395Y-123698000D01*
X179264627Y-121532232D01*
X178826173Y-121832412D01*
X178515706Y-122411356D01*
X178324150Y-123039746D01*
X178258868Y-123693431D01*
X114464361Y-123693431D01*
X114476132Y-123575569D01*
X114412633Y-122921707D01*
X114222792Y-122292798D01*
X114132437Y-122123200D01*
X122348728Y-122123200D01*
X122360988Y-122247682D01*
X122397298Y-122367380D01*
X122456263Y-122477694D01*
X122535615Y-122574385D01*
X122632306Y-122653737D01*
X122742620Y-122712702D01*
X122862318Y-122749012D01*
X122986800Y-122761272D01*
X123539250Y-122758200D01*
X123698000Y-122599450D01*
X123698000Y-121412000D01*
X123952000Y-121412000D01*
X123952000Y-122599450D01*
X124110750Y-122758200D01*
X124663200Y-122761272D01*
X124787682Y-122749012D01*
X124907380Y-122712702D01*
X125017694Y-122653737D01*
X125114385Y-122574385D01*
X125193737Y-122477694D01*
X125252702Y-122367380D01*
X125289012Y-122247682D01*
X125301272Y-122123200D01*
X136445728Y-122123200D01*
X136457988Y-122247682D01*
X136494298Y-122367380D01*
X136553263Y-122477694D01*
X136632615Y-122574385D01*
X136729306Y-122653737D01*
X136839620Y-122712702D01*
X136959318Y-122749012D01*
X137083800Y-122761272D01*
X137636250Y-122758200D01*
X137795000Y-122599450D01*
X137795000Y-121412000D01*
X138049000Y-121412000D01*
X138049000Y-122599450D01*
X138207750Y-122758200D01*
X138760200Y-122761272D01*
X138884682Y-122749012D01*
X139004380Y-122712702D01*
X139114694Y-122653737D01*
X139211385Y-122574385D01*
X139290737Y-122477694D01*
X139349702Y-122367380D01*
X139385248Y-122250200D01*
X148383728Y-122250200D01*
X148395988Y-122374682D01*
X148432298Y-122494380D01*
X148491263Y-122604694D01*
X148570615Y-122701385D01*
X148667306Y-122780737D01*
X148777620Y-122839702D01*
X148897318Y-122876012D01*
X149021800Y-122888272D01*
X149574250Y-122885200D01*
X149733000Y-122726450D01*
X149733000Y-121539000D01*
X149987000Y-121539000D01*
X149987000Y-122726450D01*
X150145750Y-122885200D01*
X150698200Y-122888272D01*
X150822682Y-122876012D01*
X150942380Y-122839702D01*
X151052694Y-122780737D01*
X151149385Y-122701385D01*
X151228737Y-122604694D01*
X151287702Y-122494380D01*
X151324012Y-122374682D01*
X151336272Y-122250200D01*
X151333200Y-121697750D01*
X151174450Y-121539000D01*
X149987000Y-121539000D01*
X149733000Y-121539000D01*
X148545550Y-121539000D01*
X148386800Y-121697750D01*
X148383728Y-122250200D01*
X139385248Y-122250200D01*
X139386012Y-122247682D01*
X139398272Y-122123200D01*
X139395200Y-121570750D01*
X139236450Y-121412000D01*
X138049000Y-121412000D01*
X137795000Y-121412000D01*
X136607550Y-121412000D01*
X136448800Y-121570750D01*
X136445728Y-122123200D01*
X125301272Y-122123200D01*
X125298200Y-121570750D01*
X125139450Y-121412000D01*
X123952000Y-121412000D01*
X123698000Y-121412000D01*
X122510550Y-121412000D01*
X122351800Y-121570750D01*
X122348728Y-122123200D01*
X114132437Y-122123200D01*
X113913903Y-121713008D01*
X113908827Y-121705412D01*
X113470373Y-121405232D01*
X111304605Y-123571000D01*
X110945395Y-123571000D01*
X108779627Y-121405232D01*
X108341173Y-121705412D01*
X108030706Y-122284356D01*
X107839150Y-122912746D01*
X107773868Y-123566431D01*
X106299000Y-123566431D01*
X106299000Y-121225627D01*
X108959232Y-121225627D01*
X111125000Y-123391395D01*
X113290768Y-121225627D01*
X112990588Y-120787173D01*
X112411644Y-120476706D01*
X112313539Y-120446800D01*
X122348728Y-120446800D01*
X122351800Y-120999250D01*
X122510550Y-121158000D01*
X123698000Y-121158000D01*
X123698000Y-119970550D01*
X123952000Y-119970550D01*
X123952000Y-121158000D01*
X125139450Y-121158000D01*
X125298200Y-120999250D01*
X125301272Y-120446800D01*
X136445728Y-120446800D01*
X136448800Y-120999250D01*
X136607550Y-121158000D01*
X137795000Y-121158000D01*
X137795000Y-119970550D01*
X138049000Y-119970550D01*
X138049000Y-121158000D01*
X139236450Y-121158000D01*
X139395200Y-120999250D01*
X139397565Y-120573800D01*
X148383728Y-120573800D01*
X148386800Y-121126250D01*
X148545550Y-121285000D01*
X149733000Y-121285000D01*
X149733000Y-120097550D01*
X149987000Y-120097550D01*
X149987000Y-121285000D01*
X151174450Y-121285000D01*
X151333200Y-121126250D01*
X151336272Y-120573800D01*
X151324012Y-120449318D01*
X151287702Y-120329620D01*
X151228737Y-120219306D01*
X151149385Y-120122615D01*
X151052694Y-120043263D01*
X150942380Y-119984298D01*
X150822682Y-119947988D01*
X150698200Y-119935728D01*
X150145750Y-119938800D01*
X149987000Y-120097550D01*
X149733000Y-120097550D01*
X149574250Y-119938800D01*
X149021800Y-119935728D01*
X148897318Y-119947988D01*
X148777620Y-119984298D01*
X148667306Y-120043263D01*
X148570615Y-120122615D01*
X148491263Y-120219306D01*
X148432298Y-120329620D01*
X148395988Y-120449318D01*
X148383728Y-120573800D01*
X139397565Y-120573800D01*
X139398272Y-120446800D01*
X139386012Y-120322318D01*
X139349702Y-120202620D01*
X139290737Y-120092306D01*
X139211385Y-119995615D01*
X139114694Y-119916263D01*
X139004380Y-119857298D01*
X138884682Y-119820988D01*
X138760200Y-119808728D01*
X138207750Y-119811800D01*
X138049000Y-119970550D01*
X137795000Y-119970550D01*
X137636250Y-119811800D01*
X137083800Y-119808728D01*
X136959318Y-119820988D01*
X136839620Y-119857298D01*
X136729306Y-119916263D01*
X136632615Y-119995615D01*
X136553263Y-120092306D01*
X136494298Y-120202620D01*
X136457988Y-120322318D01*
X136445728Y-120446800D01*
X125301272Y-120446800D01*
X125289012Y-120322318D01*
X125252702Y-120202620D01*
X125193737Y-120092306D01*
X125114385Y-119995615D01*
X125017694Y-119916263D01*
X124907380Y-119857298D01*
X124787682Y-119820988D01*
X124663200Y-119808728D01*
X124110750Y-119811800D01*
X123952000Y-119970550D01*
X123698000Y-119970550D01*
X123539250Y-119811800D01*
X122986800Y-119808728D01*
X122862318Y-119820988D01*
X122742620Y-119857298D01*
X122632306Y-119916263D01*
X122535615Y-119995615D01*
X122456263Y-120092306D01*
X122397298Y-120202620D01*
X122360988Y-120322318D01*
X122348728Y-120446800D01*
X112313539Y-120446800D01*
X111783254Y-120285150D01*
X111129569Y-120219868D01*
X110475707Y-120283367D01*
X109846798Y-120473208D01*
X109267008Y-120782097D01*
X109259412Y-120787173D01*
X108959232Y-121225627D01*
X106299000Y-121225627D01*
X106299000Y-113862512D01*
X126615783Y-113862512D01*
X126657213Y-114142130D01*
X126752397Y-114408292D01*
X126819329Y-114533514D01*
X127063298Y-114605097D01*
X127876395Y-113792000D01*
X127063298Y-112978903D01*
X126819329Y-113050486D01*
X126698429Y-113305996D01*
X126629700Y-113580184D01*
X126615783Y-113862512D01*
X106299000Y-113862512D01*
X106299000Y-101464890D01*
X110318524Y-101464890D01*
X110363175Y-101612099D01*
X110488359Y-101874920D01*
X110662412Y-102108269D01*
X110878645Y-102303178D01*
X111128748Y-102452157D01*
X111403109Y-102549481D01*
X111633000Y-102428814D01*
X111633000Y-101235000D01*
X111887000Y-101235000D01*
X111887000Y-102428814D01*
X112116891Y-102549481D01*
X112391252Y-102452157D01*
X112641355Y-102303178D01*
X112857588Y-102108269D01*
X113031641Y-101874920D01*
X113156825Y-101612099D01*
X113201476Y-101464890D01*
X113080155Y-101235000D01*
X111887000Y-101235000D01*
X111633000Y-101235000D01*
X110439845Y-101235000D01*
X110318524Y-101464890D01*
X106299000Y-101464890D01*
X106299000Y-97718000D01*
X109878875Y-97718000D01*
X109878875Y-99418000D01*
X109898688Y-99619163D01*
X109957365Y-99812594D01*
X110052651Y-99990862D01*
X110180885Y-100147115D01*
X110337138Y-100275349D01*
X110482627Y-100353114D01*
X110363175Y-100603901D01*
X110318524Y-100751110D01*
X110439845Y-100981000D01*
X111633000Y-100981000D01*
X111633000Y-100961000D01*
X111887000Y-100961000D01*
X111887000Y-100981000D01*
X113080155Y-100981000D01*
X113201476Y-100751110D01*
X113156825Y-100603901D01*
X113037373Y-100353114D01*
X113182862Y-100275349D01*
X113339115Y-100147115D01*
X113467349Y-99990862D01*
X113562635Y-99812594D01*
X113621312Y-99619163D01*
X113641125Y-99418000D01*
X113641125Y-97718000D01*
X113621312Y-97516837D01*
X113562635Y-97323406D01*
X113467349Y-97145138D01*
X113339115Y-96988885D01*
X113182862Y-96860651D01*
X113136680Y-96835966D01*
X113136680Y-96583298D01*
X117804903Y-96583298D01*
X118618000Y-97396395D01*
X119431097Y-96583298D01*
X119359514Y-96339329D01*
X119104004Y-96218429D01*
X118829816Y-96149700D01*
X118547488Y-96135783D01*
X118267870Y-96177213D01*
X118001708Y-96272397D01*
X117876486Y-96339329D01*
X117804903Y-96583298D01*
X113136680Y-96583298D01*
X113136680Y-95312238D01*
X118426239Y-90022680D01*
X121984100Y-90022680D01*
X122025891Y-90064471D01*
X122324989Y-90264322D01*
X122657329Y-90401982D01*
X123010139Y-90472160D01*
X123369861Y-90472160D01*
X123722671Y-90401982D01*
X124055011Y-90264322D01*
X124354109Y-90064471D01*
X124460000Y-89958580D01*
X124565891Y-90064471D01*
X124864989Y-90264322D01*
X125197329Y-90401982D01*
X125550139Y-90472160D01*
X125909861Y-90472160D01*
X126262671Y-90401982D01*
X126595011Y-90264322D01*
X126894109Y-90064471D01*
X127000000Y-89958580D01*
X127105891Y-90064471D01*
X127404989Y-90264322D01*
X127737329Y-90401982D01*
X128090139Y-90472160D01*
X128449861Y-90472160D01*
X128802671Y-90401982D01*
X129135011Y-90264322D01*
X129434109Y-90064471D01*
X129582202Y-89916378D01*
X129655506Y-89976537D01*
X129765820Y-90035502D01*
X129885518Y-90071812D01*
X130010000Y-90084072D01*
X130524250Y-90081000D01*
X130683000Y-89922250D01*
X130683000Y-88773000D01*
X130937000Y-88773000D01*
X130937000Y-89922250D01*
X131095750Y-90081000D01*
X131610000Y-90084072D01*
X131734482Y-90071812D01*
X131854180Y-90035502D01*
X131964494Y-89976537D01*
X132061185Y-89897185D01*
X132140537Y-89800494D01*
X132199502Y-89690180D01*
X132235812Y-89570482D01*
X132248072Y-89446000D01*
X132245000Y-88931750D01*
X132086250Y-88773000D01*
X130937000Y-88773000D01*
X130683000Y-88773000D01*
X130663000Y-88773000D01*
X130663000Y-88519000D01*
X130683000Y-88519000D01*
X130683000Y-87369750D01*
X130937000Y-87369750D01*
X130937000Y-88519000D01*
X132086250Y-88519000D01*
X132245000Y-88360250D01*
X132248072Y-87846000D01*
X132235812Y-87721518D01*
X132199502Y-87601820D01*
X132140537Y-87491506D01*
X132061185Y-87394815D01*
X131964494Y-87315463D01*
X131854180Y-87256498D01*
X131734482Y-87220188D01*
X131610000Y-87207928D01*
X131095750Y-87211000D01*
X130937000Y-87369750D01*
X130683000Y-87369750D01*
X130524250Y-87211000D01*
X130010000Y-87207928D01*
X129885518Y-87220188D01*
X129765820Y-87256498D01*
X129655506Y-87315463D01*
X129646680Y-87322706D01*
X129646680Y-81827276D01*
X131789068Y-79684890D01*
X135244250Y-79684890D01*
X134979891Y-79861529D01*
X134725529Y-80115891D01*
X134525678Y-80414989D01*
X134388018Y-80747329D01*
X134317840Y-81100139D01*
X134317840Y-81459861D01*
X134388018Y-81812671D01*
X134525678Y-82145011D01*
X134725529Y-82444109D01*
X134767320Y-82485900D01*
X134767321Y-102418569D01*
X134744030Y-102434131D01*
X134438131Y-102740030D01*
X134424841Y-102759921D01*
X129646680Y-97981762D01*
X129646680Y-97684998D01*
X129944989Y-97884322D01*
X130277329Y-98021982D01*
X130630139Y-98092160D01*
X130989861Y-98092160D01*
X131342671Y-98021982D01*
X131675011Y-97884322D01*
X131974109Y-97684471D01*
X132228471Y-97430109D01*
X132428322Y-97131011D01*
X132565982Y-96798671D01*
X132636160Y-96445861D01*
X132636160Y-96086139D01*
X132565982Y-95733329D01*
X132428322Y-95400989D01*
X132228471Y-95101891D01*
X131974109Y-94847529D01*
X131675011Y-94647678D01*
X131342671Y-94510018D01*
X130989861Y-94439840D01*
X130630139Y-94439840D01*
X130277329Y-94510018D01*
X129944989Y-94647678D01*
X129645891Y-94847529D01*
X129540000Y-94953420D01*
X129434109Y-94847529D01*
X129135011Y-94647678D01*
X128802671Y-94510018D01*
X128449861Y-94439840D01*
X128090139Y-94439840D01*
X127737329Y-94510018D01*
X127404989Y-94647678D01*
X127105891Y-94847529D01*
X127000000Y-94953420D01*
X126894109Y-94847529D01*
X126595011Y-94647678D01*
X126262671Y-94510018D01*
X125909861Y-94439840D01*
X125550139Y-94439840D01*
X125197329Y-94510018D01*
X124864989Y-94647678D01*
X124565891Y-94847529D01*
X124460000Y-94953420D01*
X124354109Y-94847529D01*
X124055011Y-94647678D01*
X123722671Y-94510018D01*
X123369861Y-94439840D01*
X123010139Y-94439840D01*
X122657329Y-94510018D01*
X122324989Y-94647678D01*
X122025891Y-94847529D01*
X121771529Y-95101891D01*
X121571678Y-95400989D01*
X121434018Y-95733329D01*
X121363840Y-96086139D01*
X121363840Y-96445861D01*
X121434018Y-96798671D01*
X121571678Y-97131011D01*
X121771529Y-97430109D01*
X121813320Y-97471900D01*
X121813320Y-97727761D01*
X120841762Y-98699320D01*
X119823900Y-98699320D01*
X119782109Y-98657529D01*
X119657847Y-98574500D01*
X119726977Y-98505370D01*
X119610704Y-98389097D01*
X119854671Y-98317514D01*
X119975571Y-98062004D01*
X120044300Y-97787816D01*
X120058217Y-97505488D01*
X120016787Y-97225870D01*
X119921603Y-96959708D01*
X119854671Y-96834486D01*
X119610702Y-96762903D01*
X118797605Y-97576000D01*
X118811748Y-97590143D01*
X118632143Y-97769748D01*
X118618000Y-97755605D01*
X118603858Y-97769748D01*
X118424253Y-97590143D01*
X118438395Y-97576000D01*
X117625298Y-96762903D01*
X117381329Y-96834486D01*
X117260429Y-97089996D01*
X117191700Y-97364184D01*
X117177783Y-97646512D01*
X117219213Y-97926130D01*
X117314397Y-98192292D01*
X117381329Y-98317514D01*
X117625296Y-98389097D01*
X117509023Y-98505370D01*
X117578153Y-98574500D01*
X117453891Y-98657529D01*
X117199529Y-98911891D01*
X116999678Y-99210989D01*
X116862018Y-99543329D01*
X116791840Y-99896139D01*
X116791840Y-100255861D01*
X116862018Y-100608671D01*
X116999678Y-100941011D01*
X117199529Y-101240109D01*
X117453891Y-101494471D01*
X117752989Y-101694322D01*
X118085329Y-101831982D01*
X118438139Y-101902160D01*
X118797861Y-101902160D01*
X119150671Y-101831982D01*
X119483011Y-101694322D01*
X119782109Y-101494471D01*
X119823900Y-101452680D01*
X121344371Y-101452680D01*
X121412000Y-101459341D01*
X121681876Y-101432760D01*
X121845481Y-101383131D01*
X121941382Y-101354040D01*
X122180543Y-101226206D01*
X122390170Y-101054170D01*
X122433290Y-101001628D01*
X124115638Y-99319281D01*
X124168169Y-99276170D01*
X124340206Y-99066543D01*
X124374955Y-99001531D01*
X124451960Y-99255381D01*
X124486790Y-99320543D01*
X124579795Y-99494543D01*
X124751831Y-99704170D01*
X124804367Y-99747285D01*
X133729081Y-108672000D01*
X130435242Y-111965840D01*
X130376139Y-111965840D01*
X130023329Y-112036018D01*
X129690989Y-112173678D01*
X129391891Y-112373529D01*
X129137529Y-112627891D01*
X129054500Y-112752153D01*
X128985370Y-112683023D01*
X128869097Y-112799296D01*
X128797514Y-112555329D01*
X128542004Y-112434429D01*
X128267816Y-112365700D01*
X127985488Y-112351783D01*
X127705870Y-112393213D01*
X127439708Y-112488397D01*
X127314486Y-112555329D01*
X127242903Y-112799298D01*
X128056000Y-113612395D01*
X128070143Y-113598253D01*
X128249748Y-113777858D01*
X128235605Y-113792000D01*
X128249748Y-113806143D01*
X128070143Y-113985748D01*
X128056000Y-113971605D01*
X127242903Y-114784702D01*
X127314486Y-115028671D01*
X127569996Y-115149571D01*
X127844184Y-115218300D01*
X128126512Y-115232217D01*
X128406130Y-115190787D01*
X128672292Y-115095603D01*
X128797514Y-115028671D01*
X128869097Y-114784704D01*
X128985370Y-114900977D01*
X129054500Y-114831847D01*
X129137529Y-114956109D01*
X129391891Y-115210471D01*
X129690989Y-115410322D01*
X130023329Y-115547982D01*
X130376139Y-115618160D01*
X130735861Y-115618160D01*
X131088671Y-115547982D01*
X131421011Y-115410322D01*
X131720109Y-115210471D01*
X131974471Y-114956109D01*
X132174322Y-114657011D01*
X132311982Y-114324671D01*
X132382160Y-113971861D01*
X132382160Y-113912758D01*
X135177960Y-111116959D01*
X135503404Y-111251763D01*
X135927697Y-111336160D01*
X136360303Y-111336160D01*
X136784596Y-111251763D01*
X137184272Y-111086211D01*
X137543970Y-110845869D01*
X137793159Y-110596680D01*
X138496371Y-110596680D01*
X138564000Y-110603341D01*
X138833876Y-110576760D01*
X139093382Y-110498040D01*
X139332543Y-110370206D01*
X139542170Y-110198170D01*
X139585290Y-110145628D01*
X140900223Y-108830695D01*
X140927697Y-108836160D01*
X141360303Y-108836160D01*
X141784596Y-108751763D01*
X142184272Y-108586211D01*
X142543970Y-108345869D01*
X142849869Y-108039970D01*
X143090211Y-107680272D01*
X143255763Y-107280596D01*
X143340160Y-106856303D01*
X143340160Y-106423697D01*
X143310673Y-106275454D01*
X143390206Y-106178543D01*
X143518040Y-105939382D01*
X143596760Y-105679876D01*
X143602784Y-105618720D01*
X143623341Y-105410001D01*
X143616680Y-105342372D01*
X143616680Y-100143628D01*
X143623341Y-100075999D01*
X143596760Y-99806124D01*
X143569101Y-99714945D01*
X143540470Y-99620560D01*
X143540470Y-95195388D01*
X145536714Y-97191633D01*
X145579830Y-97244170D01*
X145789457Y-97416206D01*
X146028618Y-97544040D01*
X146158371Y-97583400D01*
X146288123Y-97622760D01*
X146558000Y-97649341D01*
X146625629Y-97642680D01*
X147892100Y-97642680D01*
X147933891Y-97684471D01*
X148232989Y-97884322D01*
X148565329Y-98021982D01*
X148918139Y-98092160D01*
X149277861Y-98092160D01*
X149630671Y-98021982D01*
X149963011Y-97884322D01*
X150262109Y-97684471D01*
X150516471Y-97430109D01*
X150716322Y-97131011D01*
X150743250Y-97066000D01*
X155279928Y-97066000D01*
X155292188Y-97190482D01*
X155328498Y-97310180D01*
X155387463Y-97420494D01*
X155466815Y-97517185D01*
X155563506Y-97596537D01*
X155673820Y-97655502D01*
X155793518Y-97691812D01*
X155918000Y-97704072D01*
X156432250Y-97701000D01*
X156591000Y-97542250D01*
X156591000Y-96393000D01*
X156845000Y-96393000D01*
X156845000Y-97542250D01*
X157003750Y-97701000D01*
X157518000Y-97704072D01*
X157642482Y-97691812D01*
X157762180Y-97655502D01*
X157872494Y-97596537D01*
X157969185Y-97517185D01*
X158048537Y-97420494D01*
X158107502Y-97310180D01*
X158143812Y-97190482D01*
X158156072Y-97066000D01*
X158153000Y-96551750D01*
X157994250Y-96393000D01*
X156845000Y-96393000D01*
X156591000Y-96393000D01*
X155441750Y-96393000D01*
X155283000Y-96551750D01*
X155279928Y-97066000D01*
X150743250Y-97066000D01*
X150853982Y-96798671D01*
X150924160Y-96445861D01*
X150924160Y-96086139D01*
X150853982Y-95733329D01*
X150716322Y-95400989D01*
X150516471Y-95101891D01*
X150497511Y-95082931D01*
X150499246Y-95082760D01*
X150723231Y-95014815D01*
X150758752Y-95004040D01*
X150997913Y-94876206D01*
X151207540Y-94704170D01*
X151250660Y-94651628D01*
X153833638Y-92068651D01*
X153886169Y-92025540D01*
X154058206Y-91815913D01*
X154186040Y-91576752D01*
X154264760Y-91317246D01*
X154284680Y-91114999D01*
X154284680Y-91114998D01*
X154291341Y-91047370D01*
X154284680Y-90979741D01*
X154284680Y-88466139D01*
X154891840Y-88466139D01*
X154891840Y-88825861D01*
X154962018Y-89178671D01*
X155099678Y-89511011D01*
X155299529Y-89810109D01*
X155405420Y-89916000D01*
X155299529Y-90021891D01*
X155099678Y-90320989D01*
X154962018Y-90653329D01*
X154891840Y-91006139D01*
X154891840Y-91365861D01*
X154962018Y-91718671D01*
X155099678Y-92051011D01*
X155299529Y-92350109D01*
X155405420Y-92456000D01*
X155299529Y-92561891D01*
X155099678Y-92860989D01*
X154962018Y-93193329D01*
X154891840Y-93546139D01*
X154891840Y-93905861D01*
X154962018Y-94258671D01*
X155099678Y-94591011D01*
X155299529Y-94890109D01*
X155447622Y-95038202D01*
X155387463Y-95111506D01*
X155328498Y-95221820D01*
X155292188Y-95341518D01*
X155279928Y-95466000D01*
X155283000Y-95980250D01*
X155441750Y-96139000D01*
X156591000Y-96139000D01*
X156591000Y-96119000D01*
X156845000Y-96119000D01*
X156845000Y-96139000D01*
X157994250Y-96139000D01*
X158153000Y-95980250D01*
X158154079Y-95799572D01*
X162707321Y-100352814D01*
X162707320Y-119952100D01*
X162665529Y-119993891D01*
X162465678Y-120292989D01*
X162328018Y-120625329D01*
X162257840Y-120978139D01*
X162257840Y-121337861D01*
X162328018Y-121690671D01*
X162465678Y-122023011D01*
X162665529Y-122322109D01*
X162919891Y-122576471D01*
X163218989Y-122776322D01*
X163551329Y-122913982D01*
X163904139Y-122984160D01*
X164263861Y-122984160D01*
X164616671Y-122913982D01*
X164949011Y-122776322D01*
X165248109Y-122576471D01*
X165502471Y-122322109D01*
X165585500Y-122197847D01*
X165654630Y-122266977D01*
X165770903Y-122150704D01*
X165842486Y-122394671D01*
X166097996Y-122515571D01*
X166372184Y-122584300D01*
X166654512Y-122598217D01*
X166934130Y-122556787D01*
X167200292Y-122461603D01*
X167325514Y-122394671D01*
X167397097Y-122150702D01*
X166584000Y-121337605D01*
X166569858Y-121351748D01*
X166390253Y-121172143D01*
X166404395Y-121158000D01*
X166763605Y-121158000D01*
X167576702Y-121971097D01*
X167820671Y-121899514D01*
X167941571Y-121644004D01*
X168010300Y-121369816D01*
X168011147Y-121352627D01*
X179444232Y-121352627D01*
X181610000Y-123518395D01*
X183775768Y-121352627D01*
X183475588Y-120914173D01*
X182896644Y-120603706D01*
X182268254Y-120412150D01*
X181614569Y-120346868D01*
X180960707Y-120410367D01*
X180331798Y-120600208D01*
X179752008Y-120909097D01*
X179744412Y-120914173D01*
X179444232Y-121352627D01*
X168011147Y-121352627D01*
X168024217Y-121087488D01*
X167982787Y-120807870D01*
X167887603Y-120541708D01*
X167820671Y-120416486D01*
X167576702Y-120344903D01*
X166763605Y-121158000D01*
X166404395Y-121158000D01*
X166390253Y-121143858D01*
X166569858Y-120964253D01*
X166584000Y-120978395D01*
X167397097Y-120165298D01*
X167325514Y-119921329D01*
X167070004Y-119800429D01*
X166795816Y-119731700D01*
X166513488Y-119717783D01*
X166233870Y-119759213D01*
X165967708Y-119854397D01*
X165842486Y-119921329D01*
X165770903Y-120165296D01*
X165654630Y-120049023D01*
X165585500Y-120118153D01*
X165502471Y-119993891D01*
X165460680Y-119952100D01*
X165460680Y-99850202D01*
X165467341Y-99782573D01*
X165440760Y-99512697D01*
X165362040Y-99253192D01*
X165278757Y-99097381D01*
X165234206Y-99014031D01*
X165062170Y-98804404D01*
X165009634Y-98761289D01*
X159048716Y-92800372D01*
X159005596Y-92747830D01*
X158795969Y-92575794D01*
X158771434Y-92562680D01*
X162370073Y-92562680D01*
X162388451Y-92597062D01*
X162516685Y-92753315D01*
X162672938Y-92881549D01*
X162851206Y-92976835D01*
X163044637Y-93035512D01*
X163245800Y-93055325D01*
X164922200Y-93055325D01*
X165123363Y-93035512D01*
X165316794Y-92976835D01*
X165495062Y-92881549D01*
X165651315Y-92753315D01*
X165779549Y-92597062D01*
X165874835Y-92418794D01*
X165933512Y-92225363D01*
X165953325Y-92024200D01*
X165953325Y-90828772D01*
X169700833Y-90828772D01*
X169700833Y-91053279D01*
X169855815Y-91212606D01*
X169952506Y-91291958D01*
X170062820Y-91350923D01*
X170182519Y-91387232D01*
X170307000Y-91399492D01*
X170431481Y-91387232D01*
X170551180Y-91350923D01*
X170661494Y-91291958D01*
X170758185Y-91212606D01*
X170913167Y-91053279D01*
X170913167Y-90828772D01*
X170307000Y-90222605D01*
X169700833Y-90828772D01*
X165953325Y-90828772D01*
X165953325Y-90347800D01*
X165933512Y-90146637D01*
X165902503Y-90044415D01*
X165903918Y-90043000D01*
X168950508Y-90043000D01*
X168962768Y-90167481D01*
X168999077Y-90287180D01*
X169058042Y-90397494D01*
X169137394Y-90494185D01*
X169296721Y-90649167D01*
X169521228Y-90649167D01*
X170127395Y-90043000D01*
X169521228Y-89436833D01*
X169296721Y-89436833D01*
X169137394Y-89591815D01*
X169058042Y-89688506D01*
X168999077Y-89798820D01*
X168962768Y-89918519D01*
X168950508Y-90043000D01*
X165903918Y-90043000D01*
X168464239Y-87482680D01*
X170117762Y-87482680D01*
X170200320Y-87565238D01*
X170200320Y-87816339D01*
X170091606Y-87979041D01*
X169965254Y-88284082D01*
X169900840Y-88607913D01*
X169900840Y-88836443D01*
X169855815Y-88873394D01*
X169700833Y-89032721D01*
X169700833Y-89257228D01*
X170254798Y-89811193D01*
X170275042Y-89841490D01*
X170508510Y-90074958D01*
X170538807Y-90095202D01*
X171092772Y-90649167D01*
X171283820Y-90649167D01*
X171361606Y-90836959D01*
X171545042Y-91111490D01*
X171778510Y-91344958D01*
X172053041Y-91528394D01*
X172358082Y-91654746D01*
X172550003Y-91692922D01*
X173375321Y-92518239D01*
X173375321Y-92603320D01*
X172787628Y-92603320D01*
X172719999Y-92596659D01*
X172450123Y-92623240D01*
X172190618Y-92701960D01*
X171951457Y-92829794D01*
X171741830Y-93001830D01*
X171698719Y-93054361D01*
X168786367Y-95966715D01*
X168733831Y-96009830D01*
X168561794Y-96219457D01*
X168433960Y-96458618D01*
X168372672Y-96660659D01*
X168355240Y-96718124D01*
X168344308Y-96829112D01*
X168293529Y-96879891D01*
X168093678Y-97178989D01*
X167956018Y-97511329D01*
X167885840Y-97864139D01*
X167885840Y-98223861D01*
X167956018Y-98576671D01*
X168093678Y-98909011D01*
X168293529Y-99208109D01*
X168547891Y-99462471D01*
X168846989Y-99662322D01*
X169179329Y-99799982D01*
X169532139Y-99870160D01*
X169891861Y-99870160D01*
X170244671Y-99799982D01*
X170577011Y-99662322D01*
X170835320Y-99489725D01*
X170835321Y-103950073D01*
X170800938Y-103968451D01*
X170644685Y-104096685D01*
X170516451Y-104252938D01*
X170421165Y-104431206D01*
X170362488Y-104624637D01*
X170342675Y-104825800D01*
X170342675Y-106502200D01*
X170362488Y-106703363D01*
X170421165Y-106896794D01*
X170516451Y-107075062D01*
X170644685Y-107231315D01*
X170800938Y-107359549D01*
X170979206Y-107454835D01*
X171172637Y-107513512D01*
X171373800Y-107533325D01*
X173050200Y-107533325D01*
X173251363Y-107513512D01*
X173444794Y-107454835D01*
X173623062Y-107359549D01*
X173779315Y-107231315D01*
X173907549Y-107075062D01*
X174002835Y-106896794D01*
X174061512Y-106703363D01*
X174081325Y-106502200D01*
X174081325Y-104825800D01*
X174061512Y-104624637D01*
X174002835Y-104431206D01*
X173907549Y-104252938D01*
X173779315Y-104096685D01*
X173623062Y-103968451D01*
X173588680Y-103950073D01*
X173588680Y-100373400D01*
X179580090Y-100373400D01*
X179610762Y-100474528D01*
X179718527Y-100707629D01*
X179869697Y-100915227D01*
X180058463Y-101089344D01*
X180277570Y-101223289D01*
X180518599Y-101311915D01*
X180721000Y-101189085D01*
X180721000Y-100171000D01*
X180975000Y-100171000D01*
X180975000Y-101189085D01*
X181177401Y-101311915D01*
X181418430Y-101223289D01*
X181637537Y-101089344D01*
X181826303Y-100915227D01*
X181977473Y-100707629D01*
X182085238Y-100474528D01*
X182115910Y-100373400D01*
X181992224Y-100171000D01*
X180975000Y-100171000D01*
X180721000Y-100171000D01*
X179703776Y-100171000D01*
X179580090Y-100373400D01*
X173588680Y-100373400D01*
X173588680Y-99420680D01*
X179421370Y-99420680D01*
X179443885Y-99448115D01*
X179600138Y-99576349D01*
X179622419Y-99588258D01*
X179610762Y-99613472D01*
X179580090Y-99714600D01*
X179703776Y-99917000D01*
X180721000Y-99917000D01*
X180721000Y-99897000D01*
X180975000Y-99897000D01*
X180975000Y-99917000D01*
X181992224Y-99917000D01*
X182115910Y-99714600D01*
X182085238Y-99613472D01*
X182073581Y-99588258D01*
X182095862Y-99576349D01*
X182252115Y-99448115D01*
X182380349Y-99291862D01*
X182475635Y-99113594D01*
X182534312Y-98920163D01*
X182554125Y-98719000D01*
X182554125Y-97369000D01*
X182534312Y-97167837D01*
X182475635Y-96974406D01*
X182380349Y-96796138D01*
X182252115Y-96639885D01*
X182095862Y-96511651D01*
X181917594Y-96416365D01*
X181724163Y-96357688D01*
X181523000Y-96337875D01*
X180173000Y-96337875D01*
X179971837Y-96357688D01*
X179778406Y-96416365D01*
X179600138Y-96511651D01*
X179443885Y-96639885D01*
X179421370Y-96667320D01*
X173417900Y-96667320D01*
X173376109Y-96625529D01*
X173077011Y-96425678D01*
X172744671Y-96288018D01*
X172422904Y-96224015D01*
X173290240Y-95356680D01*
X174684371Y-95356680D01*
X174752000Y-95363341D01*
X174819629Y-95356680D01*
X177986371Y-95356680D01*
X178054000Y-95363341D01*
X178323876Y-95336760D01*
X178583382Y-95258040D01*
X178822543Y-95130206D01*
X179032170Y-94958170D01*
X179075290Y-94905628D01*
X181433594Y-92547325D01*
X182194200Y-92547325D01*
X182395363Y-92527512D01*
X182588794Y-92468835D01*
X182767062Y-92373549D01*
X182923315Y-92245315D01*
X183051549Y-92089062D01*
X183146835Y-91910794D01*
X183205512Y-91717363D01*
X183225325Y-91516200D01*
X183225325Y-89839800D01*
X183205512Y-89638637D01*
X183146835Y-89445206D01*
X183051549Y-89266938D01*
X182923315Y-89110685D01*
X182767062Y-88982451D01*
X182732680Y-88964073D01*
X182732680Y-86681621D01*
X182739340Y-86613999D01*
X182732680Y-86546378D01*
X182732680Y-86546371D01*
X182712760Y-86344124D01*
X182634040Y-86084618D01*
X182506206Y-85845457D01*
X182334170Y-85635830D01*
X182281639Y-85592719D01*
X178821290Y-82132372D01*
X178778170Y-82079830D01*
X178568543Y-81907794D01*
X178329382Y-81779960D01*
X178069876Y-81701240D01*
X177867629Y-81681320D01*
X177800000Y-81674659D01*
X177732371Y-81681320D01*
X171131900Y-81681320D01*
X171090109Y-81639529D01*
X170791011Y-81439678D01*
X170458671Y-81302018D01*
X170105861Y-81231840D01*
X169746139Y-81231840D01*
X169393329Y-81302018D01*
X169060989Y-81439678D01*
X168761891Y-81639529D01*
X168507529Y-81893891D01*
X168307678Y-82192989D01*
X168170018Y-82525329D01*
X168099840Y-82878139D01*
X168099840Y-83237861D01*
X168170018Y-83590671D01*
X168307678Y-83923011D01*
X168507529Y-84222109D01*
X168761891Y-84476471D01*
X169060989Y-84676322D01*
X169188937Y-84729320D01*
X167961629Y-84729320D01*
X167894000Y-84722659D01*
X167624123Y-84749240D01*
X167494371Y-84788600D01*
X167364618Y-84827960D01*
X167125457Y-84955794D01*
X166915830Y-85127830D01*
X166872714Y-85180367D01*
X163158367Y-88894715D01*
X163105831Y-88937830D01*
X162933795Y-89147457D01*
X162805960Y-89386618D01*
X162794110Y-89425684D01*
X162672938Y-89490451D01*
X162516685Y-89618685D01*
X162388451Y-89774938D01*
X162370073Y-89809320D01*
X159494008Y-89809320D01*
X159518543Y-89796206D01*
X159728170Y-89624170D01*
X159771290Y-89571628D01*
X164458760Y-84884160D01*
X164517861Y-84884160D01*
X164870671Y-84813982D01*
X165203011Y-84676322D01*
X165502109Y-84476471D01*
X165756471Y-84222109D01*
X165956322Y-83923011D01*
X166093982Y-83590671D01*
X166164160Y-83237861D01*
X166164160Y-83178759D01*
X167803639Y-81539281D01*
X167856170Y-81496170D01*
X168028206Y-81286543D01*
X168156040Y-81047382D01*
X168174307Y-80987163D01*
X168234760Y-80787877D01*
X168240691Y-80727656D01*
X168254680Y-80585629D01*
X168254680Y-80585622D01*
X168261340Y-80518001D01*
X168254680Y-80450379D01*
X168254680Y-76516238D01*
X168384545Y-76386373D01*
X179444232Y-76386373D01*
X179744412Y-76824827D01*
X180323356Y-77135294D01*
X180951746Y-77326850D01*
X181605431Y-77392132D01*
X182259293Y-77328633D01*
X182888202Y-77138792D01*
X183467992Y-76829903D01*
X183475588Y-76824827D01*
X183775768Y-76386373D01*
X181610000Y-74220605D01*
X179444232Y-76386373D01*
X168384545Y-76386373D01*
X170046759Y-74724160D01*
X170105861Y-74724160D01*
X170458671Y-74653982D01*
X170791011Y-74516322D01*
X171090109Y-74316471D01*
X171131900Y-74274680D01*
X173800073Y-74274680D01*
X173818451Y-74309062D01*
X173946685Y-74465315D01*
X174102938Y-74593549D01*
X174281206Y-74688835D01*
X174474637Y-74747512D01*
X174675800Y-74767325D01*
X176352200Y-74767325D01*
X176553363Y-74747512D01*
X176746794Y-74688835D01*
X176925062Y-74593549D01*
X177081315Y-74465315D01*
X177209549Y-74309062D01*
X177304835Y-74130794D01*
X177333459Y-74036431D01*
X178258868Y-74036431D01*
X178322367Y-74690293D01*
X178512208Y-75319202D01*
X178821097Y-75898992D01*
X178826173Y-75906588D01*
X179264627Y-76206768D01*
X181430395Y-74041000D01*
X181789605Y-74041000D01*
X183955373Y-76206768D01*
X184393827Y-75906588D01*
X184704294Y-75327644D01*
X184895850Y-74699254D01*
X184961132Y-74045569D01*
X184897633Y-73391707D01*
X184707792Y-72762798D01*
X184398903Y-72183008D01*
X184393827Y-72175412D01*
X183955373Y-71875232D01*
X181789605Y-74041000D01*
X181430395Y-74041000D01*
X179264627Y-71875232D01*
X178826173Y-72175412D01*
X178515706Y-72754356D01*
X178324150Y-73382746D01*
X178258868Y-74036431D01*
X177333459Y-74036431D01*
X177363512Y-73937363D01*
X177383325Y-73736200D01*
X177383325Y-72059800D01*
X177363512Y-71858637D01*
X177314064Y-71695627D01*
X179444232Y-71695627D01*
X181610000Y-73861395D01*
X183775768Y-71695627D01*
X183475588Y-71257173D01*
X182896644Y-70946706D01*
X182268254Y-70755150D01*
X181614569Y-70689868D01*
X180960707Y-70753367D01*
X180331798Y-70943208D01*
X179752008Y-71252097D01*
X179744412Y-71257173D01*
X179444232Y-71695627D01*
X177314064Y-71695627D01*
X177304835Y-71665206D01*
X177209549Y-71486938D01*
X177081315Y-71330685D01*
X176925062Y-71202451D01*
X176746794Y-71107165D01*
X176553363Y-71048488D01*
X176352200Y-71028675D01*
X174675800Y-71028675D01*
X174474637Y-71048488D01*
X174281206Y-71107165D01*
X174102938Y-71202451D01*
X173946685Y-71330685D01*
X173818451Y-71486938D01*
X173800073Y-71521320D01*
X171131900Y-71521320D01*
X171090109Y-71479529D01*
X170791011Y-71279678D01*
X170458671Y-71142018D01*
X170105861Y-71071840D01*
X169746139Y-71071840D01*
X169393329Y-71142018D01*
X169060989Y-71279678D01*
X168761891Y-71479529D01*
X168507529Y-71733891D01*
X168307678Y-72032989D01*
X168170018Y-72365329D01*
X168099840Y-72718139D01*
X168099840Y-72777241D01*
X165952368Y-74924714D01*
X165899830Y-74967831D01*
X165727794Y-75177458D01*
X165649114Y-75324659D01*
X165599960Y-75416619D01*
X165521240Y-75676124D01*
X165494659Y-75946000D01*
X165501320Y-76013629D01*
X165501321Y-79947759D01*
X164217241Y-81231840D01*
X164158139Y-81231840D01*
X163805329Y-81302018D01*
X163472989Y-81439678D01*
X163173891Y-81639529D01*
X162919529Y-81893891D01*
X162719678Y-82192989D01*
X162582018Y-82525329D01*
X162511840Y-82878139D01*
X162511840Y-82937240D01*
X158179762Y-87269320D01*
X157923900Y-87269320D01*
X157882109Y-87227529D01*
X157583011Y-87027678D01*
X157250671Y-86890018D01*
X156897861Y-86819840D01*
X156538139Y-86819840D01*
X156185329Y-86890018D01*
X155852989Y-87027678D01*
X155553891Y-87227529D01*
X155299529Y-87481891D01*
X155099678Y-87780989D01*
X154962018Y-88113329D01*
X154891840Y-88466139D01*
X154284680Y-88466139D01*
X154284680Y-86422238D01*
X156627639Y-84079280D01*
X156680169Y-84036170D01*
X156852206Y-83826543D01*
X156980040Y-83587382D01*
X157058760Y-83327876D01*
X157078680Y-83125629D01*
X157078680Y-83125628D01*
X157085341Y-83058000D01*
X157078680Y-82990371D01*
X157078680Y-75635431D01*
X157101970Y-75619869D01*
X157407869Y-75313970D01*
X157648211Y-74954272D01*
X157813763Y-74554596D01*
X157898160Y-74130303D01*
X157898160Y-73697697D01*
X157892695Y-73670224D01*
X157974029Y-73588890D01*
X162647555Y-73588890D01*
X162719678Y-73763011D01*
X162919529Y-74062109D01*
X163173891Y-74316471D01*
X163472989Y-74516322D01*
X163805329Y-74653982D01*
X164158139Y-74724160D01*
X164517861Y-74724160D01*
X164870671Y-74653982D01*
X165203011Y-74516322D01*
X165502109Y-74316471D01*
X165756471Y-74062109D01*
X165956322Y-73763011D01*
X166093982Y-73430671D01*
X166164160Y-73077861D01*
X166164160Y-72718139D01*
X166093982Y-72365329D01*
X165956322Y-72032989D01*
X165756471Y-71733891D01*
X165502109Y-71479529D01*
X165203011Y-71279678D01*
X164870671Y-71142018D01*
X164517861Y-71071840D01*
X164432738Y-71071840D01*
X164420753Y-71062004D01*
X164181592Y-70934170D01*
X163922086Y-70855450D01*
X163719839Y-70835530D01*
X163652210Y-70828869D01*
X163584581Y-70835530D01*
X157471411Y-70835530D01*
X157403789Y-70828870D01*
X157336168Y-70835530D01*
X157336161Y-70835530D01*
X157160181Y-70852863D01*
X157133913Y-70855450D01*
X156874408Y-70934170D01*
X156635247Y-71062004D01*
X156425620Y-71234040D01*
X156382509Y-71286571D01*
X155945776Y-71723305D01*
X155918303Y-71717840D01*
X155485697Y-71717840D01*
X155061404Y-71802237D01*
X154661728Y-71967789D01*
X154302030Y-72208131D01*
X153996131Y-72514030D01*
X153755789Y-72873728D01*
X153590237Y-73273404D01*
X153505840Y-73697697D01*
X153505840Y-74130303D01*
X153590237Y-74554596D01*
X153755789Y-74954272D01*
X153889895Y-75154976D01*
X152892695Y-74157777D01*
X152898160Y-74130303D01*
X152898160Y-73697697D01*
X152813763Y-73273404D01*
X152648211Y-72873728D01*
X152407869Y-72514030D01*
X152101970Y-72208131D01*
X151742272Y-71967789D01*
X151342596Y-71802237D01*
X150918303Y-71717840D01*
X150485697Y-71717840D01*
X150061404Y-71802237D01*
X149661728Y-71967789D01*
X149302030Y-72208131D01*
X148996131Y-72514030D01*
X148755789Y-72873728D01*
X148590237Y-73273404D01*
X148505840Y-73697697D01*
X148505840Y-74130303D01*
X148590237Y-74554596D01*
X148755789Y-74954272D01*
X148996131Y-75313970D01*
X149302030Y-75619869D01*
X149661728Y-75860211D01*
X150061404Y-76025763D01*
X150485697Y-76110160D01*
X150918303Y-76110160D01*
X150945777Y-76104695D01*
X151825321Y-76984240D01*
X151825321Y-77192569D01*
X151802030Y-77208131D01*
X151496131Y-77514030D01*
X151480569Y-77537320D01*
X149067839Y-77537320D01*
X149000210Y-77530659D01*
X148730333Y-77557240D01*
X148707373Y-77564205D01*
X148470828Y-77635960D01*
X148231667Y-77763794D01*
X148022040Y-77935830D01*
X147978929Y-77988361D01*
X144691250Y-81276041D01*
X144689639Y-81274719D01*
X139197290Y-75782372D01*
X139154170Y-75729830D01*
X138944543Y-75557794D01*
X138705382Y-75429960D01*
X138445876Y-75351240D01*
X138243629Y-75331320D01*
X138176000Y-75324659D01*
X138108371Y-75331320D01*
X130623621Y-75331320D01*
X130555999Y-75324660D01*
X130488378Y-75331320D01*
X130488371Y-75331320D01*
X130312391Y-75348653D01*
X130286123Y-75351240D01*
X130026618Y-75429960D01*
X129787457Y-75557794D01*
X129577830Y-75729830D01*
X129534719Y-75782361D01*
X125863242Y-79453840D01*
X125804139Y-79453840D01*
X125451329Y-79524018D01*
X125118989Y-79661678D01*
X124819891Y-79861529D01*
X124565529Y-80115891D01*
X124365678Y-80414989D01*
X124228018Y-80747329D01*
X124157840Y-81100139D01*
X124157840Y-81159241D01*
X122264367Y-83052715D01*
X122211831Y-83095830D01*
X122065472Y-83274169D01*
X122039795Y-83305457D01*
X121911960Y-83544619D01*
X121833240Y-83804124D01*
X121806659Y-84074000D01*
X121813321Y-84141639D01*
X121813320Y-87269320D01*
X117923629Y-87269320D01*
X117856000Y-87262659D01*
X117586123Y-87289240D01*
X117326618Y-87367960D01*
X117087457Y-87495794D01*
X116877830Y-87667830D01*
X116834715Y-87720366D01*
X110834367Y-93720715D01*
X110781831Y-93763830D01*
X110609795Y-93973457D01*
X110481960Y-94212619D01*
X110403240Y-94472124D01*
X110376659Y-94742000D01*
X110383321Y-94809639D01*
X110383320Y-96835966D01*
X110337138Y-96860651D01*
X110180885Y-96988885D01*
X110052651Y-97145138D01*
X109957365Y-97323406D01*
X109898688Y-97516837D01*
X109878875Y-97718000D01*
X106299000Y-97718000D01*
X106299000Y-76005373D01*
X110483232Y-76005373D01*
X110783412Y-76443827D01*
X111362356Y-76754294D01*
X111990746Y-76945850D01*
X112644431Y-77011132D01*
X113298293Y-76947633D01*
X113927202Y-76757792D01*
X114506992Y-76448903D01*
X114514588Y-76443827D01*
X114814768Y-76005373D01*
X112649000Y-73839605D01*
X110483232Y-76005373D01*
X106299000Y-76005373D01*
X106299000Y-73655431D01*
X109297868Y-73655431D01*
X109361367Y-74309293D01*
X109551208Y-74938202D01*
X109860097Y-75517992D01*
X109865173Y-75525588D01*
X110303627Y-75825768D01*
X112469395Y-73660000D01*
X112828605Y-73660000D01*
X114994373Y-75825768D01*
X115432827Y-75525588D01*
X115743294Y-74946644D01*
X115934850Y-74318254D01*
X116000132Y-73664569D01*
X115936633Y-73010707D01*
X115746792Y-72381798D01*
X115437903Y-71802008D01*
X115432827Y-71794412D01*
X114994373Y-71494232D01*
X112828605Y-73660000D01*
X112469395Y-73660000D01*
X110303627Y-71494232D01*
X109865173Y-71794412D01*
X109554706Y-72373356D01*
X109363150Y-73001746D01*
X109297868Y-73655431D01*
X106299000Y-73655431D01*
X106299000Y-71314627D01*
X110483232Y-71314627D01*
X112649000Y-73480395D01*
X114814768Y-71314627D01*
X114514588Y-70876173D01*
X113935644Y-70565706D01*
X113307254Y-70374150D01*
X112653569Y-70308868D01*
X111999707Y-70372367D01*
X111370798Y-70562208D01*
X110791008Y-70871097D01*
X110783412Y-70876173D01*
X110483232Y-71314627D01*
X106299000Y-71314627D01*
X106299000Y-67945000D01*
X187071000Y-67945000D01*
X187071000Y-129667000D01*
G37*
X187071000Y-129667000D02*
X106299000Y-129667000D01*
X106299000Y-125916373D01*
X108959232Y-125916373D01*
X109259412Y-126354827D01*
X109838356Y-126665294D01*
X110466746Y-126856850D01*
X111120431Y-126922132D01*
X111774293Y-126858633D01*
X112403202Y-126668792D01*
X112982992Y-126359903D01*
X112990588Y-126354827D01*
X113203819Y-126043373D01*
X179444232Y-126043373D01*
X179744412Y-126481827D01*
X180323356Y-126792294D01*
X180951746Y-126983850D01*
X181605431Y-127049132D01*
X182259293Y-126985633D01*
X182888202Y-126795792D01*
X183467992Y-126486903D01*
X183475588Y-126481827D01*
X183775768Y-126043373D01*
X181610000Y-123877605D01*
X179444232Y-126043373D01*
X113203819Y-126043373D01*
X113290768Y-125916373D01*
X111125000Y-123750605D01*
X108959232Y-125916373D01*
X106299000Y-125916373D01*
X106299000Y-123566431D01*
X107773868Y-123566431D01*
X107837367Y-124220293D01*
X108027208Y-124849202D01*
X108336097Y-125428992D01*
X108341173Y-125436588D01*
X108779627Y-125736768D01*
X110945395Y-123571000D01*
X111304605Y-123571000D01*
X113470373Y-125736768D01*
X113908827Y-125436588D01*
X114219294Y-124857644D01*
X114410850Y-124229254D01*
X114464361Y-123693431D01*
X178258868Y-123693431D01*
X178322367Y-124347293D01*
X178512208Y-124976202D01*
X178821097Y-125555992D01*
X178826173Y-125563588D01*
X179264627Y-125863768D01*
X181430395Y-123698000D01*
X181789605Y-123698000D01*
X183955373Y-125863768D01*
X184393827Y-125563588D01*
X184704294Y-124984644D01*
X184895850Y-124356254D01*
X184961132Y-123702569D01*
X184897633Y-123048707D01*
X184707792Y-122419798D01*
X184398903Y-121840008D01*
X184393827Y-121832412D01*
X183955373Y-121532232D01*
X181789605Y-123698000D01*
X181430395Y-123698000D01*
X179264627Y-121532232D01*
X178826173Y-121832412D01*
X178515706Y-122411356D01*
X178324150Y-123039746D01*
X178258868Y-123693431D01*
X114464361Y-123693431D01*
X114476132Y-123575569D01*
X114412633Y-122921707D01*
X114222792Y-122292798D01*
X114132437Y-122123200D01*
X122348728Y-122123200D01*
X122360988Y-122247682D01*
X122397298Y-122367380D01*
X122456263Y-122477694D01*
X122535615Y-122574385D01*
X122632306Y-122653737D01*
X122742620Y-122712702D01*
X122862318Y-122749012D01*
X122986800Y-122761272D01*
X123539250Y-122758200D01*
X123698000Y-122599450D01*
X123698000Y-121412000D01*
X123952000Y-121412000D01*
X123952000Y-122599450D01*
X124110750Y-122758200D01*
X124663200Y-122761272D01*
X124787682Y-122749012D01*
X124907380Y-122712702D01*
X125017694Y-122653737D01*
X125114385Y-122574385D01*
X125193737Y-122477694D01*
X125252702Y-122367380D01*
X125289012Y-122247682D01*
X125301272Y-122123200D01*
X136445728Y-122123200D01*
X136457988Y-122247682D01*
X136494298Y-122367380D01*
X136553263Y-122477694D01*
X136632615Y-122574385D01*
X136729306Y-122653737D01*
X136839620Y-122712702D01*
X136959318Y-122749012D01*
X137083800Y-122761272D01*
X137636250Y-122758200D01*
X137795000Y-122599450D01*
X137795000Y-121412000D01*
X138049000Y-121412000D01*
X138049000Y-122599450D01*
X138207750Y-122758200D01*
X138760200Y-122761272D01*
X138884682Y-122749012D01*
X139004380Y-122712702D01*
X139114694Y-122653737D01*
X139211385Y-122574385D01*
X139290737Y-122477694D01*
X139349702Y-122367380D01*
X139385248Y-122250200D01*
X148383728Y-122250200D01*
X148395988Y-122374682D01*
X148432298Y-122494380D01*
X148491263Y-122604694D01*
X148570615Y-122701385D01*
X148667306Y-122780737D01*
X148777620Y-122839702D01*
X148897318Y-122876012D01*
X149021800Y-122888272D01*
X149574250Y-122885200D01*
X149733000Y-122726450D01*
X149733000Y-121539000D01*
X149987000Y-121539000D01*
X149987000Y-122726450D01*
X150145750Y-122885200D01*
X150698200Y-122888272D01*
X150822682Y-122876012D01*
X150942380Y-122839702D01*
X151052694Y-122780737D01*
X151149385Y-122701385D01*
X151228737Y-122604694D01*
X151287702Y-122494380D01*
X151324012Y-122374682D01*
X151336272Y-122250200D01*
X151333200Y-121697750D01*
X151174450Y-121539000D01*
X149987000Y-121539000D01*
X149733000Y-121539000D01*
X148545550Y-121539000D01*
X148386800Y-121697750D01*
X148383728Y-122250200D01*
X139385248Y-122250200D01*
X139386012Y-122247682D01*
X139398272Y-122123200D01*
X139395200Y-121570750D01*
X139236450Y-121412000D01*
X138049000Y-121412000D01*
X137795000Y-121412000D01*
X136607550Y-121412000D01*
X136448800Y-121570750D01*
X136445728Y-122123200D01*
X125301272Y-122123200D01*
X125298200Y-121570750D01*
X125139450Y-121412000D01*
X123952000Y-121412000D01*
X123698000Y-121412000D01*
X122510550Y-121412000D01*
X122351800Y-121570750D01*
X122348728Y-122123200D01*
X114132437Y-122123200D01*
X113913903Y-121713008D01*
X113908827Y-121705412D01*
X113470373Y-121405232D01*
X111304605Y-123571000D01*
X110945395Y-123571000D01*
X108779627Y-121405232D01*
X108341173Y-121705412D01*
X108030706Y-122284356D01*
X107839150Y-122912746D01*
X107773868Y-123566431D01*
X106299000Y-123566431D01*
X106299000Y-121225627D01*
X108959232Y-121225627D01*
X111125000Y-123391395D01*
X113290768Y-121225627D01*
X112990588Y-120787173D01*
X112411644Y-120476706D01*
X112313539Y-120446800D01*
X122348728Y-120446800D01*
X122351800Y-120999250D01*
X122510550Y-121158000D01*
X123698000Y-121158000D01*
X123698000Y-119970550D01*
X123952000Y-119970550D01*
X123952000Y-121158000D01*
X125139450Y-121158000D01*
X125298200Y-120999250D01*
X125301272Y-120446800D01*
X136445728Y-120446800D01*
X136448800Y-120999250D01*
X136607550Y-121158000D01*
X137795000Y-121158000D01*
X137795000Y-119970550D01*
X138049000Y-119970550D01*
X138049000Y-121158000D01*
X139236450Y-121158000D01*
X139395200Y-120999250D01*
X139397565Y-120573800D01*
X148383728Y-120573800D01*
X148386800Y-121126250D01*
X148545550Y-121285000D01*
X149733000Y-121285000D01*
X149733000Y-120097550D01*
X149987000Y-120097550D01*
X149987000Y-121285000D01*
X151174450Y-121285000D01*
X151333200Y-121126250D01*
X151336272Y-120573800D01*
X151324012Y-120449318D01*
X151287702Y-120329620D01*
X151228737Y-120219306D01*
X151149385Y-120122615D01*
X151052694Y-120043263D01*
X150942380Y-119984298D01*
X150822682Y-119947988D01*
X150698200Y-119935728D01*
X150145750Y-119938800D01*
X149987000Y-120097550D01*
X149733000Y-120097550D01*
X149574250Y-119938800D01*
X149021800Y-119935728D01*
X148897318Y-119947988D01*
X148777620Y-119984298D01*
X148667306Y-120043263D01*
X148570615Y-120122615D01*
X148491263Y-120219306D01*
X148432298Y-120329620D01*
X148395988Y-120449318D01*
X148383728Y-120573800D01*
X139397565Y-120573800D01*
X139398272Y-120446800D01*
X139386012Y-120322318D01*
X139349702Y-120202620D01*
X139290737Y-120092306D01*
X139211385Y-119995615D01*
X139114694Y-119916263D01*
X139004380Y-119857298D01*
X138884682Y-119820988D01*
X138760200Y-119808728D01*
X138207750Y-119811800D01*
X138049000Y-119970550D01*
X137795000Y-119970550D01*
X137636250Y-119811800D01*
X137083800Y-119808728D01*
X136959318Y-119820988D01*
X136839620Y-119857298D01*
X136729306Y-119916263D01*
X136632615Y-119995615D01*
X136553263Y-120092306D01*
X136494298Y-120202620D01*
X136457988Y-120322318D01*
X136445728Y-120446800D01*
X125301272Y-120446800D01*
X125289012Y-120322318D01*
X125252702Y-120202620D01*
X125193737Y-120092306D01*
X125114385Y-119995615D01*
X125017694Y-119916263D01*
X124907380Y-119857298D01*
X124787682Y-119820988D01*
X124663200Y-119808728D01*
X124110750Y-119811800D01*
X123952000Y-119970550D01*
X123698000Y-119970550D01*
X123539250Y-119811800D01*
X122986800Y-119808728D01*
X122862318Y-119820988D01*
X122742620Y-119857298D01*
X122632306Y-119916263D01*
X122535615Y-119995615D01*
X122456263Y-120092306D01*
X122397298Y-120202620D01*
X122360988Y-120322318D01*
X122348728Y-120446800D01*
X112313539Y-120446800D01*
X111783254Y-120285150D01*
X111129569Y-120219868D01*
X110475707Y-120283367D01*
X109846798Y-120473208D01*
X109267008Y-120782097D01*
X109259412Y-120787173D01*
X108959232Y-121225627D01*
X106299000Y-121225627D01*
X106299000Y-113862512D01*
X126615783Y-113862512D01*
X126657213Y-114142130D01*
X126752397Y-114408292D01*
X126819329Y-114533514D01*
X127063298Y-114605097D01*
X127876395Y-113792000D01*
X127063298Y-112978903D01*
X126819329Y-113050486D01*
X126698429Y-113305996D01*
X126629700Y-113580184D01*
X126615783Y-113862512D01*
X106299000Y-113862512D01*
X106299000Y-101464890D01*
X110318524Y-101464890D01*
X110363175Y-101612099D01*
X110488359Y-101874920D01*
X110662412Y-102108269D01*
X110878645Y-102303178D01*
X111128748Y-102452157D01*
X111403109Y-102549481D01*
X111633000Y-102428814D01*
X111633000Y-101235000D01*
X111887000Y-101235000D01*
X111887000Y-102428814D01*
X112116891Y-102549481D01*
X112391252Y-102452157D01*
X112641355Y-102303178D01*
X112857588Y-102108269D01*
X113031641Y-101874920D01*
X113156825Y-101612099D01*
X113201476Y-101464890D01*
X113080155Y-101235000D01*
X111887000Y-101235000D01*
X111633000Y-101235000D01*
X110439845Y-101235000D01*
X110318524Y-101464890D01*
X106299000Y-101464890D01*
X106299000Y-97718000D01*
X109878875Y-97718000D01*
X109878875Y-99418000D01*
X109898688Y-99619163D01*
X109957365Y-99812594D01*
X110052651Y-99990862D01*
X110180885Y-100147115D01*
X110337138Y-100275349D01*
X110482627Y-100353114D01*
X110363175Y-100603901D01*
X110318524Y-100751110D01*
X110439845Y-100981000D01*
X111633000Y-100981000D01*
X111633000Y-100961000D01*
X111887000Y-100961000D01*
X111887000Y-100981000D01*
X113080155Y-100981000D01*
X113201476Y-100751110D01*
X113156825Y-100603901D01*
X113037373Y-100353114D01*
X113182862Y-100275349D01*
X113339115Y-100147115D01*
X113467349Y-99990862D01*
X113562635Y-99812594D01*
X113621312Y-99619163D01*
X113641125Y-99418000D01*
X113641125Y-97718000D01*
X113621312Y-97516837D01*
X113562635Y-97323406D01*
X113467349Y-97145138D01*
X113339115Y-96988885D01*
X113182862Y-96860651D01*
X113136680Y-96835966D01*
X113136680Y-96583298D01*
X117804903Y-96583298D01*
X118618000Y-97396395D01*
X119431097Y-96583298D01*
X119359514Y-96339329D01*
X119104004Y-96218429D01*
X118829816Y-96149700D01*
X118547488Y-96135783D01*
X118267870Y-96177213D01*
X118001708Y-96272397D01*
X117876486Y-96339329D01*
X117804903Y-96583298D01*
X113136680Y-96583298D01*
X113136680Y-95312238D01*
X118426239Y-90022680D01*
X121984100Y-90022680D01*
X122025891Y-90064471D01*
X122324989Y-90264322D01*
X122657329Y-90401982D01*
X123010139Y-90472160D01*
X123369861Y-90472160D01*
X123722671Y-90401982D01*
X124055011Y-90264322D01*
X124354109Y-90064471D01*
X124460000Y-89958580D01*
X124565891Y-90064471D01*
X124864989Y-90264322D01*
X125197329Y-90401982D01*
X125550139Y-90472160D01*
X125909861Y-90472160D01*
X126262671Y-90401982D01*
X126595011Y-90264322D01*
X126894109Y-90064471D01*
X127000000Y-89958580D01*
X127105891Y-90064471D01*
X127404989Y-90264322D01*
X127737329Y-90401982D01*
X128090139Y-90472160D01*
X128449861Y-90472160D01*
X128802671Y-90401982D01*
X129135011Y-90264322D01*
X129434109Y-90064471D01*
X129582202Y-89916378D01*
X129655506Y-89976537D01*
X129765820Y-90035502D01*
X129885518Y-90071812D01*
X130010000Y-90084072D01*
X130524250Y-90081000D01*
X130683000Y-89922250D01*
X130683000Y-88773000D01*
X130937000Y-88773000D01*
X130937000Y-89922250D01*
X131095750Y-90081000D01*
X131610000Y-90084072D01*
X131734482Y-90071812D01*
X131854180Y-90035502D01*
X131964494Y-89976537D01*
X132061185Y-89897185D01*
X132140537Y-89800494D01*
X132199502Y-89690180D01*
X132235812Y-89570482D01*
X132248072Y-89446000D01*
X132245000Y-88931750D01*
X132086250Y-88773000D01*
X130937000Y-88773000D01*
X130683000Y-88773000D01*
X130663000Y-88773000D01*
X130663000Y-88519000D01*
X130683000Y-88519000D01*
X130683000Y-87369750D01*
X130937000Y-87369750D01*
X130937000Y-88519000D01*
X132086250Y-88519000D01*
X132245000Y-88360250D01*
X132248072Y-87846000D01*
X132235812Y-87721518D01*
X132199502Y-87601820D01*
X132140537Y-87491506D01*
X132061185Y-87394815D01*
X131964494Y-87315463D01*
X131854180Y-87256498D01*
X131734482Y-87220188D01*
X131610000Y-87207928D01*
X131095750Y-87211000D01*
X130937000Y-87369750D01*
X130683000Y-87369750D01*
X130524250Y-87211000D01*
X130010000Y-87207928D01*
X129885518Y-87220188D01*
X129765820Y-87256498D01*
X129655506Y-87315463D01*
X129646680Y-87322706D01*
X129646680Y-81827276D01*
X131789068Y-79684890D01*
X135244250Y-79684890D01*
X134979891Y-79861529D01*
X134725529Y-80115891D01*
X134525678Y-80414989D01*
X134388018Y-80747329D01*
X134317840Y-81100139D01*
X134317840Y-81459861D01*
X134388018Y-81812671D01*
X134525678Y-82145011D01*
X134725529Y-82444109D01*
X134767320Y-82485900D01*
X134767321Y-102418569D01*
X134744030Y-102434131D01*
X134438131Y-102740030D01*
X134424841Y-102759921D01*
X129646680Y-97981762D01*
X129646680Y-97684998D01*
X129944989Y-97884322D01*
X130277329Y-98021982D01*
X130630139Y-98092160D01*
X130989861Y-98092160D01*
X131342671Y-98021982D01*
X131675011Y-97884322D01*
X131974109Y-97684471D01*
X132228471Y-97430109D01*
X132428322Y-97131011D01*
X132565982Y-96798671D01*
X132636160Y-96445861D01*
X132636160Y-96086139D01*
X132565982Y-95733329D01*
X132428322Y-95400989D01*
X132228471Y-95101891D01*
X131974109Y-94847529D01*
X131675011Y-94647678D01*
X131342671Y-94510018D01*
X130989861Y-94439840D01*
X130630139Y-94439840D01*
X130277329Y-94510018D01*
X129944989Y-94647678D01*
X129645891Y-94847529D01*
X129540000Y-94953420D01*
X129434109Y-94847529D01*
X129135011Y-94647678D01*
X128802671Y-94510018D01*
X128449861Y-94439840D01*
X128090139Y-94439840D01*
X127737329Y-94510018D01*
X127404989Y-94647678D01*
X127105891Y-94847529D01*
X127000000Y-94953420D01*
X126894109Y-94847529D01*
X126595011Y-94647678D01*
X126262671Y-94510018D01*
X125909861Y-94439840D01*
X125550139Y-94439840D01*
X125197329Y-94510018D01*
X124864989Y-94647678D01*
X124565891Y-94847529D01*
X124460000Y-94953420D01*
X124354109Y-94847529D01*
X124055011Y-94647678D01*
X123722671Y-94510018D01*
X123369861Y-94439840D01*
X123010139Y-94439840D01*
X122657329Y-94510018D01*
X122324989Y-94647678D01*
X122025891Y-94847529D01*
X121771529Y-95101891D01*
X121571678Y-95400989D01*
X121434018Y-95733329D01*
X121363840Y-96086139D01*
X121363840Y-96445861D01*
X121434018Y-96798671D01*
X121571678Y-97131011D01*
X121771529Y-97430109D01*
X121813320Y-97471900D01*
X121813320Y-97727761D01*
X120841762Y-98699320D01*
X119823900Y-98699320D01*
X119782109Y-98657529D01*
X119657847Y-98574500D01*
X119726977Y-98505370D01*
X119610704Y-98389097D01*
X119854671Y-98317514D01*
X119975571Y-98062004D01*
X120044300Y-97787816D01*
X120058217Y-97505488D01*
X120016787Y-97225870D01*
X119921603Y-96959708D01*
X119854671Y-96834486D01*
X119610702Y-96762903D01*
X118797605Y-97576000D01*
X118811748Y-97590143D01*
X118632143Y-97769748D01*
X118618000Y-97755605D01*
X118603858Y-97769748D01*
X118424253Y-97590143D01*
X118438395Y-97576000D01*
X117625298Y-96762903D01*
X117381329Y-96834486D01*
X117260429Y-97089996D01*
X117191700Y-97364184D01*
X117177783Y-97646512D01*
X117219213Y-97926130D01*
X117314397Y-98192292D01*
X117381329Y-98317514D01*
X117625296Y-98389097D01*
X117509023Y-98505370D01*
X117578153Y-98574500D01*
X117453891Y-98657529D01*
X117199529Y-98911891D01*
X116999678Y-99210989D01*
X116862018Y-99543329D01*
X116791840Y-99896139D01*
X116791840Y-100255861D01*
X116862018Y-100608671D01*
X116999678Y-100941011D01*
X117199529Y-101240109D01*
X117453891Y-101494471D01*
X117752989Y-101694322D01*
X118085329Y-101831982D01*
X118438139Y-101902160D01*
X118797861Y-101902160D01*
X119150671Y-101831982D01*
X119483011Y-101694322D01*
X119782109Y-101494471D01*
X119823900Y-101452680D01*
X121344371Y-101452680D01*
X121412000Y-101459341D01*
X121681876Y-101432760D01*
X121845481Y-101383131D01*
X121941382Y-101354040D01*
X122180543Y-101226206D01*
X122390170Y-101054170D01*
X122433290Y-101001628D01*
X124115638Y-99319281D01*
X124168169Y-99276170D01*
X124340206Y-99066543D01*
X124374955Y-99001531D01*
X124451960Y-99255381D01*
X124486790Y-99320543D01*
X124579795Y-99494543D01*
X124751831Y-99704170D01*
X124804367Y-99747285D01*
X133729081Y-108672000D01*
X130435242Y-111965840D01*
X130376139Y-111965840D01*
X130023329Y-112036018D01*
X129690989Y-112173678D01*
X129391891Y-112373529D01*
X129137529Y-112627891D01*
X129054500Y-112752153D01*
X128985370Y-112683023D01*
X128869097Y-112799296D01*
X128797514Y-112555329D01*
X128542004Y-112434429D01*
X128267816Y-112365700D01*
X127985488Y-112351783D01*
X127705870Y-112393213D01*
X127439708Y-112488397D01*
X127314486Y-112555329D01*
X127242903Y-112799298D01*
X128056000Y-113612395D01*
X128070143Y-113598253D01*
X128249748Y-113777858D01*
X128235605Y-113792000D01*
X128249748Y-113806143D01*
X128070143Y-113985748D01*
X128056000Y-113971605D01*
X127242903Y-114784702D01*
X127314486Y-115028671D01*
X127569996Y-115149571D01*
X127844184Y-115218300D01*
X128126512Y-115232217D01*
X128406130Y-115190787D01*
X128672292Y-115095603D01*
X128797514Y-115028671D01*
X128869097Y-114784704D01*
X128985370Y-114900977D01*
X129054500Y-114831847D01*
X129137529Y-114956109D01*
X129391891Y-115210471D01*
X129690989Y-115410322D01*
X130023329Y-115547982D01*
X130376139Y-115618160D01*
X130735861Y-115618160D01*
X131088671Y-115547982D01*
X131421011Y-115410322D01*
X131720109Y-115210471D01*
X131974471Y-114956109D01*
X132174322Y-114657011D01*
X132311982Y-114324671D01*
X132382160Y-113971861D01*
X132382160Y-113912758D01*
X135177960Y-111116959D01*
X135503404Y-111251763D01*
X135927697Y-111336160D01*
X136360303Y-111336160D01*
X136784596Y-111251763D01*
X137184272Y-111086211D01*
X137543970Y-110845869D01*
X137793159Y-110596680D01*
X138496371Y-110596680D01*
X138564000Y-110603341D01*
X138833876Y-110576760D01*
X139093382Y-110498040D01*
X139332543Y-110370206D01*
X139542170Y-110198170D01*
X139585290Y-110145628D01*
X140900223Y-108830695D01*
X140927697Y-108836160D01*
X141360303Y-108836160D01*
X141784596Y-108751763D01*
X142184272Y-108586211D01*
X142543970Y-108345869D01*
X142849869Y-108039970D01*
X143090211Y-107680272D01*
X143255763Y-107280596D01*
X143340160Y-106856303D01*
X143340160Y-106423697D01*
X143310673Y-106275454D01*
X143390206Y-106178543D01*
X143518040Y-105939382D01*
X143596760Y-105679876D01*
X143602784Y-105618720D01*
X143623341Y-105410001D01*
X143616680Y-105342372D01*
X143616680Y-100143628D01*
X143623341Y-100075999D01*
X143596760Y-99806124D01*
X143569101Y-99714945D01*
X143540470Y-99620560D01*
X143540470Y-95195388D01*
X145536714Y-97191633D01*
X145579830Y-97244170D01*
X145789457Y-97416206D01*
X146028618Y-97544040D01*
X146158371Y-97583400D01*
X146288123Y-97622760D01*
X146558000Y-97649341D01*
X146625629Y-97642680D01*
X147892100Y-97642680D01*
X147933891Y-97684471D01*
X148232989Y-97884322D01*
X148565329Y-98021982D01*
X148918139Y-98092160D01*
X149277861Y-98092160D01*
X149630671Y-98021982D01*
X149963011Y-97884322D01*
X150262109Y-97684471D01*
X150516471Y-97430109D01*
X150716322Y-97131011D01*
X150743250Y-97066000D01*
X155279928Y-97066000D01*
X155292188Y-97190482D01*
X155328498Y-97310180D01*
X155387463Y-97420494D01*
X155466815Y-97517185D01*
X155563506Y-97596537D01*
X155673820Y-97655502D01*
X155793518Y-97691812D01*
X155918000Y-97704072D01*
X156432250Y-97701000D01*
X156591000Y-97542250D01*
X156591000Y-96393000D01*
X156845000Y-96393000D01*
X156845000Y-97542250D01*
X157003750Y-97701000D01*
X157518000Y-97704072D01*
X157642482Y-97691812D01*
X157762180Y-97655502D01*
X157872494Y-97596537D01*
X157969185Y-97517185D01*
X158048537Y-97420494D01*
X158107502Y-97310180D01*
X158143812Y-97190482D01*
X158156072Y-97066000D01*
X158153000Y-96551750D01*
X157994250Y-96393000D01*
X156845000Y-96393000D01*
X156591000Y-96393000D01*
X155441750Y-96393000D01*
X155283000Y-96551750D01*
X155279928Y-97066000D01*
X150743250Y-97066000D01*
X150853982Y-96798671D01*
X150924160Y-96445861D01*
X150924160Y-96086139D01*
X150853982Y-95733329D01*
X150716322Y-95400989D01*
X150516471Y-95101891D01*
X150497511Y-95082931D01*
X150499246Y-95082760D01*
X150723231Y-95014815D01*
X150758752Y-95004040D01*
X150997913Y-94876206D01*
X151207540Y-94704170D01*
X151250660Y-94651628D01*
X153833638Y-92068651D01*
X153886169Y-92025540D01*
X154058206Y-91815913D01*
X154186040Y-91576752D01*
X154264760Y-91317246D01*
X154284680Y-91114999D01*
X154284680Y-91114998D01*
X154291341Y-91047370D01*
X154284680Y-90979741D01*
X154284680Y-88466139D01*
X154891840Y-88466139D01*
X154891840Y-88825861D01*
X154962018Y-89178671D01*
X155099678Y-89511011D01*
X155299529Y-89810109D01*
X155405420Y-89916000D01*
X155299529Y-90021891D01*
X155099678Y-90320989D01*
X154962018Y-90653329D01*
X154891840Y-91006139D01*
X154891840Y-91365861D01*
X154962018Y-91718671D01*
X155099678Y-92051011D01*
X155299529Y-92350109D01*
X155405420Y-92456000D01*
X155299529Y-92561891D01*
X155099678Y-92860989D01*
X154962018Y-93193329D01*
X154891840Y-93546139D01*
X154891840Y-93905861D01*
X154962018Y-94258671D01*
X155099678Y-94591011D01*
X155299529Y-94890109D01*
X155447622Y-95038202D01*
X155387463Y-95111506D01*
X155328498Y-95221820D01*
X155292188Y-95341518D01*
X155279928Y-95466000D01*
X155283000Y-95980250D01*
X155441750Y-96139000D01*
X156591000Y-96139000D01*
X156591000Y-96119000D01*
X156845000Y-96119000D01*
X156845000Y-96139000D01*
X157994250Y-96139000D01*
X158153000Y-95980250D01*
X158154079Y-95799572D01*
X162707321Y-100352814D01*
X162707320Y-119952100D01*
X162665529Y-119993891D01*
X162465678Y-120292989D01*
X162328018Y-120625329D01*
X162257840Y-120978139D01*
X162257840Y-121337861D01*
X162328018Y-121690671D01*
X162465678Y-122023011D01*
X162665529Y-122322109D01*
X162919891Y-122576471D01*
X163218989Y-122776322D01*
X163551329Y-122913982D01*
X163904139Y-122984160D01*
X164263861Y-122984160D01*
X164616671Y-122913982D01*
X164949011Y-122776322D01*
X165248109Y-122576471D01*
X165502471Y-122322109D01*
X165585500Y-122197847D01*
X165654630Y-122266977D01*
X165770903Y-122150704D01*
X165842486Y-122394671D01*
X166097996Y-122515571D01*
X166372184Y-122584300D01*
X166654512Y-122598217D01*
X166934130Y-122556787D01*
X167200292Y-122461603D01*
X167325514Y-122394671D01*
X167397097Y-122150702D01*
X166584000Y-121337605D01*
X166569858Y-121351748D01*
X166390253Y-121172143D01*
X166404395Y-121158000D01*
X166763605Y-121158000D01*
X167576702Y-121971097D01*
X167820671Y-121899514D01*
X167941571Y-121644004D01*
X168010300Y-121369816D01*
X168011147Y-121352627D01*
X179444232Y-121352627D01*
X181610000Y-123518395D01*
X183775768Y-121352627D01*
X183475588Y-120914173D01*
X182896644Y-120603706D01*
X182268254Y-120412150D01*
X181614569Y-120346868D01*
X180960707Y-120410367D01*
X180331798Y-120600208D01*
X179752008Y-120909097D01*
X179744412Y-120914173D01*
X179444232Y-121352627D01*
X168011147Y-121352627D01*
X168024217Y-121087488D01*
X167982787Y-120807870D01*
X167887603Y-120541708D01*
X167820671Y-120416486D01*
X167576702Y-120344903D01*
X166763605Y-121158000D01*
X166404395Y-121158000D01*
X166390253Y-121143858D01*
X166569858Y-120964253D01*
X166584000Y-120978395D01*
X167397097Y-120165298D01*
X167325514Y-119921329D01*
X167070004Y-119800429D01*
X166795816Y-119731700D01*
X166513488Y-119717783D01*
X166233870Y-119759213D01*
X165967708Y-119854397D01*
X165842486Y-119921329D01*
X165770903Y-120165296D01*
X165654630Y-120049023D01*
X165585500Y-120118153D01*
X165502471Y-119993891D01*
X165460680Y-119952100D01*
X165460680Y-99850202D01*
X165467341Y-99782573D01*
X165440760Y-99512697D01*
X165362040Y-99253192D01*
X165278757Y-99097381D01*
X165234206Y-99014031D01*
X165062170Y-98804404D01*
X165009634Y-98761289D01*
X159048716Y-92800372D01*
X159005596Y-92747830D01*
X158795969Y-92575794D01*
X158771434Y-92562680D01*
X162370073Y-92562680D01*
X162388451Y-92597062D01*
X162516685Y-92753315D01*
X162672938Y-92881549D01*
X162851206Y-92976835D01*
X163044637Y-93035512D01*
X163245800Y-93055325D01*
X164922200Y-93055325D01*
X165123363Y-93035512D01*
X165316794Y-92976835D01*
X165495062Y-92881549D01*
X165651315Y-92753315D01*
X165779549Y-92597062D01*
X165874835Y-92418794D01*
X165933512Y-92225363D01*
X165953325Y-92024200D01*
X165953325Y-90828772D01*
X169700833Y-90828772D01*
X169700833Y-91053279D01*
X169855815Y-91212606D01*
X169952506Y-91291958D01*
X170062820Y-91350923D01*
X170182519Y-91387232D01*
X170307000Y-91399492D01*
X170431481Y-91387232D01*
X170551180Y-91350923D01*
X170661494Y-91291958D01*
X170758185Y-91212606D01*
X170913167Y-91053279D01*
X170913167Y-90828772D01*
X170307000Y-90222605D01*
X169700833Y-90828772D01*
X165953325Y-90828772D01*
X165953325Y-90347800D01*
X165933512Y-90146637D01*
X165902503Y-90044415D01*
X165903918Y-90043000D01*
X168950508Y-90043000D01*
X168962768Y-90167481D01*
X168999077Y-90287180D01*
X169058042Y-90397494D01*
X169137394Y-90494185D01*
X169296721Y-90649167D01*
X169521228Y-90649167D01*
X170127395Y-90043000D01*
X169521228Y-89436833D01*
X169296721Y-89436833D01*
X169137394Y-89591815D01*
X169058042Y-89688506D01*
X168999077Y-89798820D01*
X168962768Y-89918519D01*
X168950508Y-90043000D01*
X165903918Y-90043000D01*
X168464239Y-87482680D01*
X170117762Y-87482680D01*
X170200320Y-87565238D01*
X170200320Y-87816339D01*
X170091606Y-87979041D01*
X169965254Y-88284082D01*
X169900840Y-88607913D01*
X169900840Y-88836443D01*
X169855815Y-88873394D01*
X169700833Y-89032721D01*
X169700833Y-89257228D01*
X170254798Y-89811193D01*
X170275042Y-89841490D01*
X170508510Y-90074958D01*
X170538807Y-90095202D01*
X171092772Y-90649167D01*
X171283820Y-90649167D01*
X171361606Y-90836959D01*
X171545042Y-91111490D01*
X171778510Y-91344958D01*
X172053041Y-91528394D01*
X172358082Y-91654746D01*
X172550003Y-91692922D01*
X173375321Y-92518239D01*
X173375321Y-92603320D01*
X172787628Y-92603320D01*
X172719999Y-92596659D01*
X172450123Y-92623240D01*
X172190618Y-92701960D01*
X171951457Y-92829794D01*
X171741830Y-93001830D01*
X171698719Y-93054361D01*
X168786367Y-95966715D01*
X168733831Y-96009830D01*
X168561794Y-96219457D01*
X168433960Y-96458618D01*
X168372672Y-96660659D01*
X168355240Y-96718124D01*
X168344308Y-96829112D01*
X168293529Y-96879891D01*
X168093678Y-97178989D01*
X167956018Y-97511329D01*
X167885840Y-97864139D01*
X167885840Y-98223861D01*
X167956018Y-98576671D01*
X168093678Y-98909011D01*
X168293529Y-99208109D01*
X168547891Y-99462471D01*
X168846989Y-99662322D01*
X169179329Y-99799982D01*
X169532139Y-99870160D01*
X169891861Y-99870160D01*
X170244671Y-99799982D01*
X170577011Y-99662322D01*
X170835320Y-99489725D01*
X170835321Y-103950073D01*
X170800938Y-103968451D01*
X170644685Y-104096685D01*
X170516451Y-104252938D01*
X170421165Y-104431206D01*
X170362488Y-104624637D01*
X170342675Y-104825800D01*
X170342675Y-106502200D01*
X170362488Y-106703363D01*
X170421165Y-106896794D01*
X170516451Y-107075062D01*
X170644685Y-107231315D01*
X170800938Y-107359549D01*
X170979206Y-107454835D01*
X171172637Y-107513512D01*
X171373800Y-107533325D01*
X173050200Y-107533325D01*
X173251363Y-107513512D01*
X173444794Y-107454835D01*
X173623062Y-107359549D01*
X173779315Y-107231315D01*
X173907549Y-107075062D01*
X174002835Y-106896794D01*
X174061512Y-106703363D01*
X174081325Y-106502200D01*
X174081325Y-104825800D01*
X174061512Y-104624637D01*
X174002835Y-104431206D01*
X173907549Y-104252938D01*
X173779315Y-104096685D01*
X173623062Y-103968451D01*
X173588680Y-103950073D01*
X173588680Y-100373400D01*
X179580090Y-100373400D01*
X179610762Y-100474528D01*
X179718527Y-100707629D01*
X179869697Y-100915227D01*
X180058463Y-101089344D01*
X180277570Y-101223289D01*
X180518599Y-101311915D01*
X180721000Y-101189085D01*
X180721000Y-100171000D01*
X180975000Y-100171000D01*
X180975000Y-101189085D01*
X181177401Y-101311915D01*
X181418430Y-101223289D01*
X181637537Y-101089344D01*
X181826303Y-100915227D01*
X181977473Y-100707629D01*
X182085238Y-100474528D01*
X182115910Y-100373400D01*
X181992224Y-100171000D01*
X180975000Y-100171000D01*
X180721000Y-100171000D01*
X179703776Y-100171000D01*
X179580090Y-100373400D01*
X173588680Y-100373400D01*
X173588680Y-99420680D01*
X179421370Y-99420680D01*
X179443885Y-99448115D01*
X179600138Y-99576349D01*
X179622419Y-99588258D01*
X179610762Y-99613472D01*
X179580090Y-99714600D01*
X179703776Y-99917000D01*
X180721000Y-99917000D01*
X180721000Y-99897000D01*
X180975000Y-99897000D01*
X180975000Y-99917000D01*
X181992224Y-99917000D01*
X182115910Y-99714600D01*
X182085238Y-99613472D01*
X182073581Y-99588258D01*
X182095862Y-99576349D01*
X182252115Y-99448115D01*
X182380349Y-99291862D01*
X182475635Y-99113594D01*
X182534312Y-98920163D01*
X182554125Y-98719000D01*
X182554125Y-97369000D01*
X182534312Y-97167837D01*
X182475635Y-96974406D01*
X182380349Y-96796138D01*
X182252115Y-96639885D01*
X182095862Y-96511651D01*
X181917594Y-96416365D01*
X181724163Y-96357688D01*
X181523000Y-96337875D01*
X180173000Y-96337875D01*
X179971837Y-96357688D01*
X179778406Y-96416365D01*
X179600138Y-96511651D01*
X179443885Y-96639885D01*
X179421370Y-96667320D01*
X173417900Y-96667320D01*
X173376109Y-96625529D01*
X173077011Y-96425678D01*
X172744671Y-96288018D01*
X172422904Y-96224015D01*
X173290240Y-95356680D01*
X174684371Y-95356680D01*
X174752000Y-95363341D01*
X174819629Y-95356680D01*
X177986371Y-95356680D01*
X178054000Y-95363341D01*
X178323876Y-95336760D01*
X178583382Y-95258040D01*
X178822543Y-95130206D01*
X179032170Y-94958170D01*
X179075290Y-94905628D01*
X181433594Y-92547325D01*
X182194200Y-92547325D01*
X182395363Y-92527512D01*
X182588794Y-92468835D01*
X182767062Y-92373549D01*
X182923315Y-92245315D01*
X183051549Y-92089062D01*
X183146835Y-91910794D01*
X183205512Y-91717363D01*
X183225325Y-91516200D01*
X183225325Y-89839800D01*
X183205512Y-89638637D01*
X183146835Y-89445206D01*
X183051549Y-89266938D01*
X182923315Y-89110685D01*
X182767062Y-88982451D01*
X182732680Y-88964073D01*
X182732680Y-86681621D01*
X182739340Y-86613999D01*
X182732680Y-86546378D01*
X182732680Y-86546371D01*
X182712760Y-86344124D01*
X182634040Y-86084618D01*
X182506206Y-85845457D01*
X182334170Y-85635830D01*
X182281639Y-85592719D01*
X178821290Y-82132372D01*
X178778170Y-82079830D01*
X178568543Y-81907794D01*
X178329382Y-81779960D01*
X178069876Y-81701240D01*
X177867629Y-81681320D01*
X177800000Y-81674659D01*
X177732371Y-81681320D01*
X171131900Y-81681320D01*
X171090109Y-81639529D01*
X170791011Y-81439678D01*
X170458671Y-81302018D01*
X170105861Y-81231840D01*
X169746139Y-81231840D01*
X169393329Y-81302018D01*
X169060989Y-81439678D01*
X168761891Y-81639529D01*
X168507529Y-81893891D01*
X168307678Y-82192989D01*
X168170018Y-82525329D01*
X168099840Y-82878139D01*
X168099840Y-83237861D01*
X168170018Y-83590671D01*
X168307678Y-83923011D01*
X168507529Y-84222109D01*
X168761891Y-84476471D01*
X169060989Y-84676322D01*
X169188937Y-84729320D01*
X167961629Y-84729320D01*
X167894000Y-84722659D01*
X167624123Y-84749240D01*
X167494371Y-84788600D01*
X167364618Y-84827960D01*
X167125457Y-84955794D01*
X166915830Y-85127830D01*
X166872714Y-85180367D01*
X163158367Y-88894715D01*
X163105831Y-88937830D01*
X162933795Y-89147457D01*
X162805960Y-89386618D01*
X162794110Y-89425684D01*
X162672938Y-89490451D01*
X162516685Y-89618685D01*
X162388451Y-89774938D01*
X162370073Y-89809320D01*
X159494008Y-89809320D01*
X159518543Y-89796206D01*
X159728170Y-89624170D01*
X159771290Y-89571628D01*
X164458760Y-84884160D01*
X164517861Y-84884160D01*
X164870671Y-84813982D01*
X165203011Y-84676322D01*
X165502109Y-84476471D01*
X165756471Y-84222109D01*
X165956322Y-83923011D01*
X166093982Y-83590671D01*
X166164160Y-83237861D01*
X166164160Y-83178759D01*
X167803639Y-81539281D01*
X167856170Y-81496170D01*
X168028206Y-81286543D01*
X168156040Y-81047382D01*
X168174307Y-80987163D01*
X168234760Y-80787877D01*
X168240691Y-80727656D01*
X168254680Y-80585629D01*
X168254680Y-80585622D01*
X168261340Y-80518001D01*
X168254680Y-80450379D01*
X168254680Y-76516238D01*
X168384545Y-76386373D01*
X179444232Y-76386373D01*
X179744412Y-76824827D01*
X180323356Y-77135294D01*
X180951746Y-77326850D01*
X181605431Y-77392132D01*
X182259293Y-77328633D01*
X182888202Y-77138792D01*
X183467992Y-76829903D01*
X183475588Y-76824827D01*
X183775768Y-76386373D01*
X181610000Y-74220605D01*
X179444232Y-76386373D01*
X168384545Y-76386373D01*
X170046759Y-74724160D01*
X170105861Y-74724160D01*
X170458671Y-74653982D01*
X170791011Y-74516322D01*
X171090109Y-74316471D01*
X171131900Y-74274680D01*
X173800073Y-74274680D01*
X173818451Y-74309062D01*
X173946685Y-74465315D01*
X174102938Y-74593549D01*
X174281206Y-74688835D01*
X174474637Y-74747512D01*
X174675800Y-74767325D01*
X176352200Y-74767325D01*
X176553363Y-74747512D01*
X176746794Y-74688835D01*
X176925062Y-74593549D01*
X177081315Y-74465315D01*
X177209549Y-74309062D01*
X177304835Y-74130794D01*
X177333459Y-74036431D01*
X178258868Y-74036431D01*
X178322367Y-74690293D01*
X178512208Y-75319202D01*
X178821097Y-75898992D01*
X178826173Y-75906588D01*
X179264627Y-76206768D01*
X181430395Y-74041000D01*
X181789605Y-74041000D01*
X183955373Y-76206768D01*
X184393827Y-75906588D01*
X184704294Y-75327644D01*
X184895850Y-74699254D01*
X184961132Y-74045569D01*
X184897633Y-73391707D01*
X184707792Y-72762798D01*
X184398903Y-72183008D01*
X184393827Y-72175412D01*
X183955373Y-71875232D01*
X181789605Y-74041000D01*
X181430395Y-74041000D01*
X179264627Y-71875232D01*
X178826173Y-72175412D01*
X178515706Y-72754356D01*
X178324150Y-73382746D01*
X178258868Y-74036431D01*
X177333459Y-74036431D01*
X177363512Y-73937363D01*
X177383325Y-73736200D01*
X177383325Y-72059800D01*
X177363512Y-71858637D01*
X177314064Y-71695627D01*
X179444232Y-71695627D01*
X181610000Y-73861395D01*
X183775768Y-71695627D01*
X183475588Y-71257173D01*
X182896644Y-70946706D01*
X182268254Y-70755150D01*
X181614569Y-70689868D01*
X180960707Y-70753367D01*
X180331798Y-70943208D01*
X179752008Y-71252097D01*
X179744412Y-71257173D01*
X179444232Y-71695627D01*
X177314064Y-71695627D01*
X177304835Y-71665206D01*
X177209549Y-71486938D01*
X177081315Y-71330685D01*
X176925062Y-71202451D01*
X176746794Y-71107165D01*
X176553363Y-71048488D01*
X176352200Y-71028675D01*
X174675800Y-71028675D01*
X174474637Y-71048488D01*
X174281206Y-71107165D01*
X174102938Y-71202451D01*
X173946685Y-71330685D01*
X173818451Y-71486938D01*
X173800073Y-71521320D01*
X171131900Y-71521320D01*
X171090109Y-71479529D01*
X170791011Y-71279678D01*
X170458671Y-71142018D01*
X170105861Y-71071840D01*
X169746139Y-71071840D01*
X169393329Y-71142018D01*
X169060989Y-71279678D01*
X168761891Y-71479529D01*
X168507529Y-71733891D01*
X168307678Y-72032989D01*
X168170018Y-72365329D01*
X168099840Y-72718139D01*
X168099840Y-72777241D01*
X165952368Y-74924714D01*
X165899830Y-74967831D01*
X165727794Y-75177458D01*
X165649114Y-75324659D01*
X165599960Y-75416619D01*
X165521240Y-75676124D01*
X165494659Y-75946000D01*
X165501320Y-76013629D01*
X165501321Y-79947759D01*
X164217241Y-81231840D01*
X164158139Y-81231840D01*
X163805329Y-81302018D01*
X163472989Y-81439678D01*
X163173891Y-81639529D01*
X162919529Y-81893891D01*
X162719678Y-82192989D01*
X162582018Y-82525329D01*
X162511840Y-82878139D01*
X162511840Y-82937240D01*
X158179762Y-87269320D01*
X157923900Y-87269320D01*
X157882109Y-87227529D01*
X157583011Y-87027678D01*
X157250671Y-86890018D01*
X156897861Y-86819840D01*
X156538139Y-86819840D01*
X156185329Y-86890018D01*
X155852989Y-87027678D01*
X155553891Y-87227529D01*
X155299529Y-87481891D01*
X155099678Y-87780989D01*
X154962018Y-88113329D01*
X154891840Y-88466139D01*
X154284680Y-88466139D01*
X154284680Y-86422238D01*
X156627639Y-84079280D01*
X156680169Y-84036170D01*
X156852206Y-83826543D01*
X156980040Y-83587382D01*
X157058760Y-83327876D01*
X157078680Y-83125629D01*
X157078680Y-83125628D01*
X157085341Y-83058000D01*
X157078680Y-82990371D01*
X157078680Y-75635431D01*
X157101970Y-75619869D01*
X157407869Y-75313970D01*
X157648211Y-74954272D01*
X157813763Y-74554596D01*
X157898160Y-74130303D01*
X157898160Y-73697697D01*
X157892695Y-73670224D01*
X157974029Y-73588890D01*
X162647555Y-73588890D01*
X162719678Y-73763011D01*
X162919529Y-74062109D01*
X163173891Y-74316471D01*
X163472989Y-74516322D01*
X163805329Y-74653982D01*
X164158139Y-74724160D01*
X164517861Y-74724160D01*
X164870671Y-74653982D01*
X165203011Y-74516322D01*
X165502109Y-74316471D01*
X165756471Y-74062109D01*
X165956322Y-73763011D01*
X166093982Y-73430671D01*
X166164160Y-73077861D01*
X166164160Y-72718139D01*
X166093982Y-72365329D01*
X165956322Y-72032989D01*
X165756471Y-71733891D01*
X165502109Y-71479529D01*
X165203011Y-71279678D01*
X164870671Y-71142018D01*
X164517861Y-71071840D01*
X164432738Y-71071840D01*
X164420753Y-71062004D01*
X164181592Y-70934170D01*
X163922086Y-70855450D01*
X163719839Y-70835530D01*
X163652210Y-70828869D01*
X163584581Y-70835530D01*
X157471411Y-70835530D01*
X157403789Y-70828870D01*
X157336168Y-70835530D01*
X157336161Y-70835530D01*
X157160181Y-70852863D01*
X157133913Y-70855450D01*
X156874408Y-70934170D01*
X156635247Y-71062004D01*
X156425620Y-71234040D01*
X156382509Y-71286571D01*
X155945776Y-71723305D01*
X155918303Y-71717840D01*
X155485697Y-71717840D01*
X155061404Y-71802237D01*
X154661728Y-71967789D01*
X154302030Y-72208131D01*
X153996131Y-72514030D01*
X153755789Y-72873728D01*
X153590237Y-73273404D01*
X153505840Y-73697697D01*
X153505840Y-74130303D01*
X153590237Y-74554596D01*
X153755789Y-74954272D01*
X153889895Y-75154976D01*
X152892695Y-74157777D01*
X152898160Y-74130303D01*
X152898160Y-73697697D01*
X152813763Y-73273404D01*
X152648211Y-72873728D01*
X152407869Y-72514030D01*
X152101970Y-72208131D01*
X151742272Y-71967789D01*
X151342596Y-71802237D01*
X150918303Y-71717840D01*
X150485697Y-71717840D01*
X150061404Y-71802237D01*
X149661728Y-71967789D01*
X149302030Y-72208131D01*
X148996131Y-72514030D01*
X148755789Y-72873728D01*
X148590237Y-73273404D01*
X148505840Y-73697697D01*
X148505840Y-74130303D01*
X148590237Y-74554596D01*
X148755789Y-74954272D01*
X148996131Y-75313970D01*
X149302030Y-75619869D01*
X149661728Y-75860211D01*
X150061404Y-76025763D01*
X150485697Y-76110160D01*
X150918303Y-76110160D01*
X150945777Y-76104695D01*
X151825321Y-76984240D01*
X151825321Y-77192569D01*
X151802030Y-77208131D01*
X151496131Y-77514030D01*
X151480569Y-77537320D01*
X149067839Y-77537320D01*
X149000210Y-77530659D01*
X148730333Y-77557240D01*
X148707373Y-77564205D01*
X148470828Y-77635960D01*
X148231667Y-77763794D01*
X148022040Y-77935830D01*
X147978929Y-77988361D01*
X144691250Y-81276041D01*
X144689639Y-81274719D01*
X139197290Y-75782372D01*
X139154170Y-75729830D01*
X138944543Y-75557794D01*
X138705382Y-75429960D01*
X138445876Y-75351240D01*
X138243629Y-75331320D01*
X138176000Y-75324659D01*
X138108371Y-75331320D01*
X130623621Y-75331320D01*
X130555999Y-75324660D01*
X130488378Y-75331320D01*
X130488371Y-75331320D01*
X130312391Y-75348653D01*
X130286123Y-75351240D01*
X130026618Y-75429960D01*
X129787457Y-75557794D01*
X129577830Y-75729830D01*
X129534719Y-75782361D01*
X125863242Y-79453840D01*
X125804139Y-79453840D01*
X125451329Y-79524018D01*
X125118989Y-79661678D01*
X124819891Y-79861529D01*
X124565529Y-80115891D01*
X124365678Y-80414989D01*
X124228018Y-80747329D01*
X124157840Y-81100139D01*
X124157840Y-81159241D01*
X122264367Y-83052715D01*
X122211831Y-83095830D01*
X122065472Y-83274169D01*
X122039795Y-83305457D01*
X121911960Y-83544619D01*
X121833240Y-83804124D01*
X121806659Y-84074000D01*
X121813321Y-84141639D01*
X121813320Y-87269320D01*
X117923629Y-87269320D01*
X117856000Y-87262659D01*
X117586123Y-87289240D01*
X117326618Y-87367960D01*
X117087457Y-87495794D01*
X116877830Y-87667830D01*
X116834715Y-87720366D01*
X110834367Y-93720715D01*
X110781831Y-93763830D01*
X110609795Y-93973457D01*
X110481960Y-94212619D01*
X110403240Y-94472124D01*
X110376659Y-94742000D01*
X110383321Y-94809639D01*
X110383320Y-96835966D01*
X110337138Y-96860651D01*
X110180885Y-96988885D01*
X110052651Y-97145138D01*
X109957365Y-97323406D01*
X109898688Y-97516837D01*
X109878875Y-97718000D01*
X106299000Y-97718000D01*
X106299000Y-76005373D01*
X110483232Y-76005373D01*
X110783412Y-76443827D01*
X111362356Y-76754294D01*
X111990746Y-76945850D01*
X112644431Y-77011132D01*
X113298293Y-76947633D01*
X113927202Y-76757792D01*
X114506992Y-76448903D01*
X114514588Y-76443827D01*
X114814768Y-76005373D01*
X112649000Y-73839605D01*
X110483232Y-76005373D01*
X106299000Y-76005373D01*
X106299000Y-73655431D01*
X109297868Y-73655431D01*
X109361367Y-74309293D01*
X109551208Y-74938202D01*
X109860097Y-75517992D01*
X109865173Y-75525588D01*
X110303627Y-75825768D01*
X112469395Y-73660000D01*
X112828605Y-73660000D01*
X114994373Y-75825768D01*
X115432827Y-75525588D01*
X115743294Y-74946644D01*
X115934850Y-74318254D01*
X116000132Y-73664569D01*
X115936633Y-73010707D01*
X115746792Y-72381798D01*
X115437903Y-71802008D01*
X115432827Y-71794412D01*
X114994373Y-71494232D01*
X112828605Y-73660000D01*
X112469395Y-73660000D01*
X110303627Y-71494232D01*
X109865173Y-71794412D01*
X109554706Y-72373356D01*
X109363150Y-73001746D01*
X109297868Y-73655431D01*
X106299000Y-73655431D01*
X106299000Y-71314627D01*
X110483232Y-71314627D01*
X112649000Y-73480395D01*
X114814768Y-71314627D01*
X114514588Y-70876173D01*
X113935644Y-70565706D01*
X113307254Y-70374150D01*
X112653569Y-70308868D01*
X111999707Y-70372367D01*
X111370798Y-70562208D01*
X110791008Y-70871097D01*
X110783412Y-70876173D01*
X110483232Y-71314627D01*
X106299000Y-71314627D01*
X106299000Y-67945000D01*
X187071000Y-67945000D01*
X187071000Y-129667000D01*
G36*
X179979321Y-87184241D02*
G01*
X179979320Y-88964073D01*
X179944938Y-88982451D01*
X179788685Y-89110685D01*
X179660451Y-89266938D01*
X179565165Y-89445206D01*
X179506488Y-89638637D01*
X179486675Y-89839800D01*
X179486675Y-90600406D01*
X177483762Y-92603320D01*
X176128680Y-92603320D01*
X176128680Y-92015628D01*
X176135341Y-91947999D01*
X176108760Y-91678123D01*
X176030040Y-91418618D01*
X175975856Y-91317247D01*
X175902206Y-91179457D01*
X175730170Y-90969830D01*
X175677633Y-90926714D01*
X174496922Y-89746003D01*
X174458746Y-89554082D01*
X174332394Y-89249041D01*
X174148958Y-88974510D01*
X173915490Y-88741042D01*
X173640959Y-88557606D01*
X173335918Y-88431254D01*
X173213163Y-88406837D01*
X173188746Y-88284082D01*
X173062394Y-87979041D01*
X172953680Y-87816339D01*
X172953680Y-87062629D01*
X172960341Y-86995000D01*
X172933760Y-86725123D01*
X172855040Y-86465618D01*
X172810014Y-86381381D01*
X172727206Y-86226457D01*
X172555169Y-86016830D01*
X172502633Y-85973715D01*
X171709290Y-85180372D01*
X171666170Y-85127830D01*
X171456543Y-84955794D01*
X171217382Y-84827960D01*
X170957876Y-84749240D01*
X170755629Y-84729320D01*
X170688000Y-84722659D01*
X170676381Y-84723803D01*
X170791011Y-84676322D01*
X171090109Y-84476471D01*
X171131900Y-84434680D01*
X177229762Y-84434680D01*
X179979321Y-87184241D01*
G37*
X179979321Y-87184241D02*
X179979320Y-88964073D01*
X179944938Y-88982451D01*
X179788685Y-89110685D01*
X179660451Y-89266938D01*
X179565165Y-89445206D01*
X179506488Y-89638637D01*
X179486675Y-89839800D01*
X179486675Y-90600406D01*
X177483762Y-92603320D01*
X176128680Y-92603320D01*
X176128680Y-92015628D01*
X176135341Y-91947999D01*
X176108760Y-91678123D01*
X176030040Y-91418618D01*
X175975856Y-91317247D01*
X175902206Y-91179457D01*
X175730170Y-90969830D01*
X175677633Y-90926714D01*
X174496922Y-89746003D01*
X174458746Y-89554082D01*
X174332394Y-89249041D01*
X174148958Y-88974510D01*
X173915490Y-88741042D01*
X173640959Y-88557606D01*
X173335918Y-88431254D01*
X173213163Y-88406837D01*
X173188746Y-88284082D01*
X173062394Y-87979041D01*
X172953680Y-87816339D01*
X172953680Y-87062629D01*
X172960341Y-86995000D01*
X172933760Y-86725123D01*
X172855040Y-86465618D01*
X172810014Y-86381381D01*
X172727206Y-86226457D01*
X172555169Y-86016830D01*
X172502633Y-85973715D01*
X171709290Y-85180372D01*
X171666170Y-85127830D01*
X171456543Y-84955794D01*
X171217382Y-84827960D01*
X170957876Y-84749240D01*
X170755629Y-84729320D01*
X170688000Y-84722659D01*
X170676381Y-84723803D01*
X170791011Y-84676322D01*
X171090109Y-84476471D01*
X171131900Y-84434680D01*
X177229762Y-84434680D01*
X179979321Y-87184241D01*
G36*
X140787111Y-83529068D02*
G01*
X140787110Y-99932161D01*
X140780449Y-99999790D01*
X140807030Y-100269666D01*
X140855458Y-100429312D01*
X140863321Y-100455232D01*
X140863320Y-104456645D01*
X140503404Y-104528237D01*
X140103728Y-104693789D01*
X139744030Y-104934131D01*
X139438131Y-105240030D01*
X139197789Y-105599728D01*
X139032237Y-105999404D01*
X138947840Y-106423697D01*
X138947840Y-106856303D01*
X138953305Y-106883777D01*
X137993762Y-107843320D01*
X137918885Y-107843320D01*
X137849869Y-107740030D01*
X137543970Y-107434131D01*
X137184272Y-107193789D01*
X136784596Y-107028237D01*
X136360303Y-106943840D01*
X135927697Y-106943840D01*
X135900224Y-106949305D01*
X134903024Y-105952105D01*
X135103728Y-106086211D01*
X135503404Y-106251763D01*
X135927697Y-106336160D01*
X136360303Y-106336160D01*
X136784596Y-106251763D01*
X137184272Y-106086211D01*
X137543970Y-105845869D01*
X137849869Y-105539970D01*
X138090211Y-105180272D01*
X138255763Y-104780596D01*
X138340160Y-104356303D01*
X138340160Y-103923697D01*
X138255763Y-103499404D01*
X138090211Y-103099728D01*
X137849869Y-102740030D01*
X137543970Y-102434131D01*
X137520680Y-102418569D01*
X137520680Y-82485900D01*
X137562471Y-82444109D01*
X137762322Y-82145011D01*
X137899982Y-81812671D01*
X137970160Y-81459861D01*
X137970160Y-81100139D01*
X137899982Y-80747329D01*
X137825459Y-80567416D01*
X140787111Y-83529068D01*
G37*
X140787111Y-83529068D02*
X140787110Y-99932161D01*
X140780449Y-99999790D01*
X140807030Y-100269666D01*
X140855458Y-100429312D01*
X140863321Y-100455232D01*
X140863320Y-104456645D01*
X140503404Y-104528237D01*
X140103728Y-104693789D01*
X139744030Y-104934131D01*
X139438131Y-105240030D01*
X139197789Y-105599728D01*
X139032237Y-105999404D01*
X138947840Y-106423697D01*
X138947840Y-106856303D01*
X138953305Y-106883777D01*
X137993762Y-107843320D01*
X137918885Y-107843320D01*
X137849869Y-107740030D01*
X137543970Y-107434131D01*
X137184272Y-107193789D01*
X136784596Y-107028237D01*
X136360303Y-106943840D01*
X135927697Y-106943840D01*
X135900224Y-106949305D01*
X134903024Y-105952105D01*
X135103728Y-106086211D01*
X135503404Y-106251763D01*
X135927697Y-106336160D01*
X136360303Y-106336160D01*
X136784596Y-106251763D01*
X137184272Y-106086211D01*
X137543970Y-105845869D01*
X137849869Y-105539970D01*
X138090211Y-105180272D01*
X138255763Y-104780596D01*
X138340160Y-104356303D01*
X138340160Y-103923697D01*
X138255763Y-103499404D01*
X138090211Y-103099728D01*
X137849869Y-102740030D01*
X137543970Y-102434131D01*
X137520680Y-102418569D01*
X137520680Y-82485900D01*
X137562471Y-82444109D01*
X137762322Y-82145011D01*
X137899982Y-81812671D01*
X137970160Y-81459861D01*
X137970160Y-81100139D01*
X137899982Y-80747329D01*
X137825459Y-80567416D01*
X140787111Y-83529068D01*
G36*
X147449354Y-91977802D02*
G01*
X147479678Y-92051011D01*
X147679529Y-92350109D01*
X147785420Y-92456000D01*
X147679529Y-92561891D01*
X147479678Y-92860989D01*
X147342018Y-93193329D01*
X147271840Y-93546139D01*
X147271840Y-93905861D01*
X147342018Y-94258671D01*
X147479678Y-94591011D01*
X147679002Y-94889320D01*
X147128239Y-94889320D01*
X145140680Y-92901762D01*
X145140680Y-89669127D01*
X147449354Y-91977802D01*
G37*
X147449354Y-91977802D02*
X147479678Y-92051011D01*
X147679529Y-92350109D01*
X147785420Y-92456000D01*
X147679529Y-92561891D01*
X147479678Y-92860989D01*
X147342018Y-93193329D01*
X147271840Y-93546139D01*
X147271840Y-93905861D01*
X147342018Y-94258671D01*
X147479678Y-94591011D01*
X147679002Y-94889320D01*
X147128239Y-94889320D01*
X145140680Y-92901762D01*
X145140680Y-89669127D01*
X147449354Y-91977802D01*
G36*
X151496131Y-80313970D02*
G01*
X151802030Y-80619869D01*
X152161728Y-80860211D01*
X152561404Y-81025763D01*
X152985697Y-81110160D01*
X153418303Y-81110160D01*
X153842596Y-81025763D01*
X154242272Y-80860211D01*
X154325320Y-80804720D01*
X154325320Y-82487761D01*
X151982367Y-84830715D01*
X151929831Y-84873830D01*
X151783472Y-85052169D01*
X151757795Y-85083457D01*
X151629960Y-85322619D01*
X151551240Y-85582124D01*
X151524659Y-85852000D01*
X151531321Y-85919639D01*
X151531320Y-90477131D01*
X150924160Y-91084291D01*
X150924160Y-91006139D01*
X150853982Y-90653329D01*
X150716322Y-90320989D01*
X150516471Y-90021891D01*
X150410580Y-89916000D01*
X150516471Y-89810109D01*
X150716322Y-89511011D01*
X150853982Y-89178671D01*
X150924160Y-88825861D01*
X150924160Y-88466139D01*
X150853982Y-88113329D01*
X150716322Y-87780989D01*
X150516471Y-87481891D01*
X150474680Y-87440100D01*
X150474680Y-84517927D01*
X150509062Y-84499549D01*
X150665315Y-84371315D01*
X150793549Y-84215062D01*
X150888835Y-84036794D01*
X150947512Y-83843363D01*
X150967325Y-83642200D01*
X150967325Y-81965800D01*
X150947512Y-81764637D01*
X150888835Y-81571206D01*
X150793549Y-81392938D01*
X150665315Y-81236685D01*
X150509062Y-81108451D01*
X150330794Y-81013165D01*
X150137363Y-80954488D01*
X149936200Y-80934675D01*
X148926454Y-80934675D01*
X149570450Y-80290680D01*
X151480569Y-80290680D01*
X151496131Y-80313970D01*
G37*
X151496131Y-80313970D02*
X151802030Y-80619869D01*
X152161728Y-80860211D01*
X152561404Y-81025763D01*
X152985697Y-81110160D01*
X153418303Y-81110160D01*
X153842596Y-81025763D01*
X154242272Y-80860211D01*
X154325320Y-80804720D01*
X154325320Y-82487761D01*
X151982367Y-84830715D01*
X151929831Y-84873830D01*
X151783472Y-85052169D01*
X151757795Y-85083457D01*
X151629960Y-85322619D01*
X151551240Y-85582124D01*
X151524659Y-85852000D01*
X151531321Y-85919639D01*
X151531320Y-90477131D01*
X150924160Y-91084291D01*
X150924160Y-91006139D01*
X150853982Y-90653329D01*
X150716322Y-90320989D01*
X150516471Y-90021891D01*
X150410580Y-89916000D01*
X150516471Y-89810109D01*
X150716322Y-89511011D01*
X150853982Y-89178671D01*
X150924160Y-88825861D01*
X150924160Y-88466139D01*
X150853982Y-88113329D01*
X150716322Y-87780989D01*
X150516471Y-87481891D01*
X150474680Y-87440100D01*
X150474680Y-84517927D01*
X150509062Y-84499549D01*
X150665315Y-84371315D01*
X150793549Y-84215062D01*
X150888835Y-84036794D01*
X150947512Y-83843363D01*
X150967325Y-83642200D01*
X150967325Y-81965800D01*
X150947512Y-81764637D01*
X150888835Y-81571206D01*
X150793549Y-81392938D01*
X150665315Y-81236685D01*
X150509062Y-81108451D01*
X150330794Y-81013165D01*
X150137363Y-80954488D01*
X149936200Y-80934675D01*
X148926454Y-80934675D01*
X149570450Y-80290680D01*
X151480569Y-80290680D01*
X151496131Y-80313970D01*
G36*
X147228675Y-83642200D02*
G01*
X147248488Y-83843363D01*
X147307165Y-84036794D01*
X147402451Y-84215062D01*
X147530685Y-84371315D01*
X147686938Y-84499549D01*
X147721321Y-84517927D01*
X147721320Y-87440100D01*
X147679529Y-87481891D01*
X147479678Y-87780989D01*
X147382057Y-88016667D01*
X146740890Y-87375501D01*
X146740890Y-83120238D01*
X147228675Y-82632454D01*
X147228675Y-83642200D01*
G37*
X147228675Y-83642200D02*
X147248488Y-83843363D01*
X147307165Y-84036794D01*
X147402451Y-84215062D01*
X147530685Y-84371315D01*
X147686938Y-84499549D01*
X147721321Y-84517927D01*
X147721320Y-87440100D01*
X147679529Y-87481891D01*
X147479678Y-87780989D01*
X147382057Y-88016667D01*
X146740890Y-87375501D01*
X146740890Y-83120238D01*
X147228675Y-82632454D01*
X147228675Y-83642200D01*
G36*
X126893321Y-87227002D02*
G01*
X126595011Y-87027678D01*
X126262671Y-86890018D01*
X125909861Y-86819840D01*
X125550139Y-86819840D01*
X125197329Y-86890018D01*
X124864989Y-87027678D01*
X124566680Y-87227002D01*
X124566680Y-84644238D01*
X126104759Y-83106160D01*
X126163861Y-83106160D01*
X126516671Y-83035982D01*
X126849011Y-82898322D01*
X126893320Y-82868716D01*
X126893321Y-87227002D01*
G37*
X126893321Y-87227002D02*
X126595011Y-87027678D01*
X126262671Y-86890018D01*
X125909861Y-86819840D01*
X125550139Y-86819840D01*
X125197329Y-86890018D01*
X124864989Y-87027678D01*
X124566680Y-87227002D01*
X124566680Y-84644238D01*
X126104759Y-83106160D01*
X126163861Y-83106160D01*
X126516671Y-83035982D01*
X126849011Y-82898322D01*
X126893320Y-82868716D01*
X126893321Y-87227002D01*
%TD*%
M02*
