%TF.GenerationSoftware,KiCad,Pcbnew,(5.1.6)-1*%
%TF.CreationDate,2020-10-03T13:42:35-07:00*%
%TF.ProjectId,mini project newest,6d696e69-2070-4726-9f6a-656374206e65,rev?*%
%TF.SameCoordinates,Original*%
%TF.FileFunction,Legend,Top*%
%TF.FilePolarity,Positive*%
%FSLAX46Y46*%
G04 Gerber Fmt 4.6, Leading zero omitted, Abs format (unit mm)*
G04 Created by KiCad (PCBNEW (5.1.6)-1) date 2020-10-03 13:42:35*
%MOMM*%
%LPD*%
G01*
G04 APERTURE LIST*
%ADD10C,0.150000*%
%ADD11C,0.120000*%
G04 APERTURE END LIST*
D10*
X140661571Y-74234523D02*
X141387285Y-74234523D01*
X141024428Y-75504523D02*
X141024428Y-74234523D01*
X142052523Y-74234523D02*
X142294428Y-74234523D01*
X142415380Y-74295000D01*
X142536333Y-74415952D01*
X142596809Y-74657857D01*
X142596809Y-75081190D01*
X142536333Y-75323095D01*
X142415380Y-75444047D01*
X142294428Y-75504523D01*
X142052523Y-75504523D01*
X141931571Y-75444047D01*
X141810619Y-75323095D01*
X141750142Y-75081190D01*
X141750142Y-74657857D01*
X141810619Y-74415952D01*
X141931571Y-74295000D01*
X142052523Y-74234523D01*
X143141095Y-75504523D02*
X143141095Y-74234523D01*
X143866809Y-75504523D01*
X143866809Y-74234523D01*
X144471571Y-74839285D02*
X144894904Y-74839285D01*
X145076333Y-75504523D02*
X144471571Y-75504523D01*
X144471571Y-74234523D01*
X145076333Y-74234523D01*
X146527761Y-74355476D02*
X146588238Y-74295000D01*
X146709190Y-74234523D01*
X147011571Y-74234523D01*
X147132523Y-74295000D01*
X147193000Y-74355476D01*
X147253476Y-74476428D01*
X147253476Y-74597380D01*
X147193000Y-74778809D01*
X146467285Y-75504523D01*
X147253476Y-75504523D01*
X135581571Y-114112523D02*
X136307285Y-114112523D01*
X135944428Y-115382523D02*
X135944428Y-114112523D01*
X136972523Y-114112523D02*
X137214428Y-114112523D01*
X137335380Y-114173000D01*
X137456333Y-114293952D01*
X137516809Y-114535857D01*
X137516809Y-114959190D01*
X137456333Y-115201095D01*
X137335380Y-115322047D01*
X137214428Y-115382523D01*
X136972523Y-115382523D01*
X136851571Y-115322047D01*
X136730619Y-115201095D01*
X136670142Y-114959190D01*
X136670142Y-114535857D01*
X136730619Y-114293952D01*
X136851571Y-114173000D01*
X136972523Y-114112523D01*
X138061095Y-115382523D02*
X138061095Y-114112523D01*
X138786809Y-115382523D01*
X138786809Y-114112523D01*
X139391571Y-114717285D02*
X139814904Y-114717285D01*
X139996333Y-115382523D02*
X139391571Y-115382523D01*
X139391571Y-114112523D01*
X139996333Y-114112523D01*
X142173476Y-115382523D02*
X141447761Y-115382523D01*
X141810619Y-115382523D02*
X141810619Y-114112523D01*
X141689666Y-114293952D01*
X141568714Y-114414904D01*
X141447761Y-114475380D01*
X176886809Y-103892047D02*
X177068238Y-103952523D01*
X177370619Y-103952523D01*
X177491571Y-103892047D01*
X177552047Y-103831571D01*
X177612523Y-103710619D01*
X177612523Y-103589666D01*
X177552047Y-103468714D01*
X177491571Y-103408238D01*
X177370619Y-103347761D01*
X177128714Y-103287285D01*
X177007761Y-103226809D01*
X176947285Y-103166333D01*
X176886809Y-103045380D01*
X176886809Y-102924428D01*
X176947285Y-102803476D01*
X177007761Y-102743000D01*
X177128714Y-102682523D01*
X177431095Y-102682523D01*
X177612523Y-102743000D01*
X178156809Y-103952523D02*
X178156809Y-102682523D01*
X178640619Y-102682523D01*
X178761571Y-102743000D01*
X178822047Y-102803476D01*
X178882523Y-102924428D01*
X178882523Y-103105857D01*
X178822047Y-103226809D01*
X178761571Y-103287285D01*
X178640619Y-103347761D01*
X178156809Y-103347761D01*
X179426809Y-103287285D02*
X179850142Y-103287285D01*
X180031571Y-103952523D02*
X179426809Y-103952523D01*
X179426809Y-102682523D01*
X180031571Y-102682523D01*
X180515380Y-103589666D02*
X181120142Y-103589666D01*
X180394428Y-103952523D02*
X180817761Y-102682523D01*
X181241095Y-103952523D01*
X181664428Y-103952523D02*
X181664428Y-102682523D01*
X182390142Y-103952523D02*
X181845857Y-103226809D01*
X182390142Y-102682523D02*
X181664428Y-103408238D01*
X182934428Y-103287285D02*
X183357761Y-103287285D01*
X183539190Y-103952523D02*
X182934428Y-103952523D01*
X182934428Y-102682523D01*
X183539190Y-102682523D01*
X184809190Y-103952523D02*
X184385857Y-103347761D01*
X184083476Y-103952523D02*
X184083476Y-102682523D01*
X184567285Y-102682523D01*
X184688238Y-102743000D01*
X184748714Y-102803476D01*
X184809190Y-102924428D01*
X184809190Y-103105857D01*
X184748714Y-103226809D01*
X184688238Y-103287285D01*
X184567285Y-103347761D01*
X184083476Y-103347761D01*
X112933238Y-94875047D02*
X112933238Y-94488000D01*
X112836476Y-94294476D01*
X112739714Y-94197714D01*
X112449428Y-94004190D01*
X112062380Y-93907428D01*
X111288285Y-93907428D01*
X111094761Y-94004190D01*
X110998000Y-94100952D01*
X110901238Y-94294476D01*
X110901238Y-94681523D01*
X110998000Y-94875047D01*
X111094761Y-94971809D01*
X111288285Y-95068571D01*
X111772095Y-95068571D01*
X111965619Y-94971809D01*
X112062380Y-94875047D01*
X112159142Y-94681523D01*
X112159142Y-94294476D01*
X112062380Y-94100952D01*
X111965619Y-94004190D01*
X111772095Y-93907428D01*
X110901238Y-93326857D02*
X112933238Y-92649523D01*
X110901238Y-91972190D01*
X111868857Y-89069333D02*
X111965619Y-88779047D01*
X112062380Y-88682285D01*
X112255904Y-88585523D01*
X112546190Y-88585523D01*
X112739714Y-88682285D01*
X112836476Y-88779047D01*
X112933238Y-88972571D01*
X112933238Y-89746666D01*
X110901238Y-89746666D01*
X110901238Y-89069333D01*
X110998000Y-88875809D01*
X111094761Y-88779047D01*
X111288285Y-88682285D01*
X111481809Y-88682285D01*
X111675333Y-88779047D01*
X111772095Y-88875809D01*
X111868857Y-89069333D01*
X111868857Y-89746666D01*
X112352666Y-87811428D02*
X112352666Y-86843809D01*
X112933238Y-88004952D02*
X110901238Y-87327619D01*
X112933238Y-86650285D01*
X110901238Y-86263238D02*
X110901238Y-85102095D01*
X112933238Y-85682666D02*
X110901238Y-85682666D01*
X110901238Y-84715047D02*
X110901238Y-83553904D01*
X112933238Y-84134476D02*
X110901238Y-84134476D01*
X119525142Y-127060476D02*
X119815428Y-127157238D01*
X120299238Y-127157238D01*
X120492761Y-127060476D01*
X120589523Y-126963714D01*
X120686285Y-126770190D01*
X120686285Y-126576666D01*
X120589523Y-126383142D01*
X120492761Y-126286380D01*
X120299238Y-126189619D01*
X119912190Y-126092857D01*
X119718666Y-125996095D01*
X119621904Y-125899333D01*
X119525142Y-125705809D01*
X119525142Y-125512285D01*
X119621904Y-125318761D01*
X119718666Y-125222000D01*
X119912190Y-125125238D01*
X120396000Y-125125238D01*
X120686285Y-125222000D01*
X121557142Y-127157238D02*
X121557142Y-125125238D01*
X122040952Y-125125238D01*
X122331238Y-125222000D01*
X122524761Y-125415523D01*
X122621523Y-125609047D01*
X122718285Y-125996095D01*
X122718285Y-126286380D01*
X122621523Y-126673428D01*
X122524761Y-126866952D01*
X122331238Y-127060476D01*
X122040952Y-127157238D01*
X121557142Y-127157238D01*
X123492380Y-127060476D02*
X123782666Y-127157238D01*
X124266476Y-127157238D01*
X124460000Y-127060476D01*
X124556761Y-126963714D01*
X124653523Y-126770190D01*
X124653523Y-126576666D01*
X124556761Y-126383142D01*
X124460000Y-126286380D01*
X124266476Y-126189619D01*
X123879428Y-126092857D01*
X123685904Y-125996095D01*
X123589142Y-125899333D01*
X123492380Y-125705809D01*
X123492380Y-125512285D01*
X123589142Y-125318761D01*
X123685904Y-125222000D01*
X123879428Y-125125238D01*
X124363238Y-125125238D01*
X124653523Y-125222000D01*
X125524380Y-125125238D02*
X125524380Y-126770190D01*
X125621142Y-126963714D01*
X125717904Y-127060476D01*
X125911428Y-127157238D01*
X126298476Y-127157238D01*
X126492000Y-127060476D01*
X126588761Y-126963714D01*
X126685523Y-126770190D01*
X126685523Y-125125238D01*
X129201333Y-126092857D02*
X129878666Y-126092857D01*
X130168952Y-127157238D02*
X129201333Y-127157238D01*
X129201333Y-125125238D01*
X130168952Y-125125238D01*
X131039809Y-126092857D02*
X131717142Y-126092857D01*
X132007428Y-127157238D02*
X131039809Y-127157238D01*
X131039809Y-125125238D01*
X132007428Y-125125238D01*
X132878285Y-126383142D02*
X134426476Y-126383142D01*
X136264952Y-125802571D02*
X136264952Y-127157238D01*
X135781142Y-125028476D02*
X135297333Y-126479904D01*
X136555238Y-126479904D01*
X137426095Y-127157238D02*
X137813142Y-127157238D01*
X138006666Y-127060476D01*
X138103428Y-126963714D01*
X138296952Y-126673428D01*
X138393714Y-126286380D01*
X138393714Y-125512285D01*
X138296952Y-125318761D01*
X138200190Y-125222000D01*
X138006666Y-125125238D01*
X137619619Y-125125238D01*
X137426095Y-125222000D01*
X137329333Y-125318761D01*
X137232571Y-125512285D01*
X137232571Y-125996095D01*
X137329333Y-126189619D01*
X137426095Y-126286380D01*
X137619619Y-126383142D01*
X138006666Y-126383142D01*
X138200190Y-126286380D01*
X138296952Y-126189619D01*
X138393714Y-125996095D01*
X140135428Y-125125238D02*
X139748380Y-125125238D01*
X139554857Y-125222000D01*
X139458095Y-125318761D01*
X139264571Y-125609047D01*
X139167809Y-125996095D01*
X139167809Y-126770190D01*
X139264571Y-126963714D01*
X139361333Y-127060476D01*
X139554857Y-127157238D01*
X139941904Y-127157238D01*
X140135428Y-127060476D01*
X140232190Y-126963714D01*
X140328952Y-126770190D01*
X140328952Y-126286380D01*
X140232190Y-126092857D01*
X140135428Y-125996095D01*
X139941904Y-125899333D01*
X139554857Y-125899333D01*
X139361333Y-125996095D01*
X139264571Y-126092857D01*
X139167809Y-126286380D01*
X141103047Y-126576666D02*
X142070666Y-126576666D01*
X140909523Y-127157238D02*
X141586857Y-125125238D01*
X142264190Y-127157238D01*
X144199428Y-125125238D02*
X145360571Y-125125238D01*
X144780000Y-127157238D02*
X144780000Y-125125238D01*
X146037904Y-126092857D02*
X146715238Y-126092857D01*
X147005523Y-127157238D02*
X146037904Y-127157238D01*
X146037904Y-125125238D01*
X147005523Y-125125238D01*
X147779619Y-126576666D02*
X148747238Y-126576666D01*
X147586095Y-127157238D02*
X148263428Y-125125238D01*
X148940761Y-127157238D01*
X149618095Y-127157238D02*
X149618095Y-125125238D01*
X150295428Y-126576666D01*
X150972761Y-125125238D01*
X150972761Y-127157238D01*
X153778857Y-125996095D02*
X153585333Y-125899333D01*
X153488571Y-125802571D01*
X153391809Y-125609047D01*
X153391809Y-125512285D01*
X153488571Y-125318761D01*
X153585333Y-125222000D01*
X153778857Y-125125238D01*
X154165904Y-125125238D01*
X154359428Y-125222000D01*
X154456190Y-125318761D01*
X154552952Y-125512285D01*
X154552952Y-125609047D01*
X154456190Y-125802571D01*
X154359428Y-125899333D01*
X154165904Y-125996095D01*
X153778857Y-125996095D01*
X153585333Y-126092857D01*
X153488571Y-126189619D01*
X153391809Y-126383142D01*
X153391809Y-126770190D01*
X153488571Y-126963714D01*
X153585333Y-127060476D01*
X153778857Y-127157238D01*
X154165904Y-127157238D01*
X154359428Y-127060476D01*
X154456190Y-126963714D01*
X154552952Y-126770190D01*
X154552952Y-126383142D01*
X154456190Y-126189619D01*
X154359428Y-126092857D01*
X154165904Y-125996095D01*
X158133142Y-127157238D02*
X157455809Y-126189619D01*
X156972000Y-127157238D02*
X156972000Y-125125238D01*
X157746095Y-125125238D01*
X157939619Y-125222000D01*
X158036380Y-125318761D01*
X158133142Y-125512285D01*
X158133142Y-125802571D01*
X158036380Y-125996095D01*
X157939619Y-126092857D01*
X157746095Y-126189619D01*
X156972000Y-126189619D01*
X159004000Y-126092857D02*
X159681333Y-126092857D01*
X159971619Y-127157238D02*
X159004000Y-127157238D01*
X159004000Y-125125238D01*
X159971619Y-125125238D01*
X160552190Y-125125238D02*
X161229523Y-127157238D01*
X161906857Y-125125238D01*
X162584190Y-126383142D02*
X164132380Y-126383142D01*
X165003238Y-126576666D02*
X165970857Y-126576666D01*
X164809714Y-127157238D02*
X165487047Y-125125238D01*
X166164380Y-127157238D01*
D11*
%TO.C,Q1*%
X169777000Y-91893000D02*
X173377000Y-91893000D01*
X173415478Y-91881478D02*
G75*
G03*
X171577000Y-87443000I-1838478J1838478D01*
G01*
X169738522Y-91881478D02*
G75*
G02*
X171577000Y-87443000I1838478J1838478D01*
G01*
%TO.C,J1*%
X110430000Y-102438000D02*
X113090000Y-102438000D01*
X110430000Y-99838000D02*
X110430000Y-102438000D01*
X113090000Y-99838000D02*
X113090000Y-102438000D01*
X110430000Y-99838000D02*
X113090000Y-99838000D01*
X110430000Y-98568000D02*
X110430000Y-97238000D01*
X110430000Y-97238000D02*
X111760000Y-97238000D01*
%TO.C,U1*%
X132140000Y-91456000D02*
X132140000Y-89806000D01*
X132140000Y-89806000D02*
X121860000Y-89806000D01*
X121860000Y-89806000D02*
X121860000Y-95106000D01*
X121860000Y-95106000D02*
X132140000Y-95106000D01*
X132140000Y-95106000D02*
X132140000Y-93456000D01*
X132140000Y-93456000D02*
G75*
G02*
X132140000Y-91456000I0J1000000D01*
G01*
%TO.C,U2*%
X153908000Y-97596000D02*
X155558000Y-97596000D01*
X155558000Y-97596000D02*
X155558000Y-87316000D01*
X155558000Y-87316000D02*
X150258000Y-87316000D01*
X150258000Y-87316000D02*
X150258000Y-97596000D01*
X150258000Y-97596000D02*
X151908000Y-97596000D01*
X151908000Y-97596000D02*
G75*
G02*
X153908000Y-97596000I1000000J0D01*
G01*
%TO.C,TP8*%
X171517000Y-106349000D02*
X172907000Y-106349000D01*
X171517000Y-106349000D02*
X171517000Y-106224000D01*
X172907000Y-106349000D02*
X172907000Y-106224000D01*
X171517000Y-106349000D02*
X171603724Y-106349000D01*
X172820276Y-106349000D02*
X172907000Y-106349000D01*
X171517000Y-105664000D02*
X171517000Y-104979000D01*
X171517000Y-104979000D02*
X172212000Y-104979000D01*
%TO.C,TP7*%
X180661000Y-91363000D02*
X182051000Y-91363000D01*
X180661000Y-91363000D02*
X180661000Y-91238000D01*
X182051000Y-91363000D02*
X182051000Y-91238000D01*
X180661000Y-91363000D02*
X180747724Y-91363000D01*
X181964276Y-91363000D02*
X182051000Y-91363000D01*
X180661000Y-90678000D02*
X180661000Y-89993000D01*
X180661000Y-89993000D02*
X181356000Y-89993000D01*
%TO.C,TP6*%
X174819000Y-73583000D02*
X176209000Y-73583000D01*
X174819000Y-73583000D02*
X174819000Y-73458000D01*
X176209000Y-73583000D02*
X176209000Y-73458000D01*
X174819000Y-73583000D02*
X174905724Y-73583000D01*
X176122276Y-73583000D02*
X176209000Y-73583000D01*
X174819000Y-72898000D02*
X174819000Y-72213000D01*
X174819000Y-72213000D02*
X175514000Y-72213000D01*
%TO.C,TP5*%
X163389000Y-91871000D02*
X164779000Y-91871000D01*
X163389000Y-91871000D02*
X163389000Y-91746000D01*
X164779000Y-91871000D02*
X164779000Y-91746000D01*
X163389000Y-91871000D02*
X163475724Y-91871000D01*
X164692276Y-91871000D02*
X164779000Y-91871000D01*
X163389000Y-91186000D02*
X163389000Y-90501000D01*
X163389000Y-90501000D02*
X164084000Y-90501000D01*
%TO.C,TP4*%
X148403000Y-83489000D02*
X149793000Y-83489000D01*
X148403000Y-83489000D02*
X148403000Y-83364000D01*
X149793000Y-83489000D02*
X149793000Y-83364000D01*
X148403000Y-83489000D02*
X148489724Y-83489000D01*
X149706276Y-83489000D02*
X149793000Y-83489000D01*
X148403000Y-82804000D02*
X148403000Y-82119000D01*
X148403000Y-82119000D02*
X149098000Y-82119000D01*
%TO.C,TP3*%
X149165000Y-122097000D02*
X150555000Y-122097000D01*
X149165000Y-122097000D02*
X149165000Y-121972000D01*
X150555000Y-122097000D02*
X150555000Y-121972000D01*
X149165000Y-122097000D02*
X149251724Y-122097000D01*
X150468276Y-122097000D02*
X150555000Y-122097000D01*
X149165000Y-121412000D02*
X149165000Y-120727000D01*
X149165000Y-120727000D02*
X149860000Y-120727000D01*
%TO.C,TP2*%
X137227000Y-121970000D02*
X138617000Y-121970000D01*
X137227000Y-121970000D02*
X137227000Y-121845000D01*
X138617000Y-121970000D02*
X138617000Y-121845000D01*
X137227000Y-121970000D02*
X137313724Y-121970000D01*
X138530276Y-121970000D02*
X138617000Y-121970000D01*
X137227000Y-121285000D02*
X137227000Y-120600000D01*
X137227000Y-120600000D02*
X137922000Y-120600000D01*
%TO.C,TP1*%
X123130000Y-121970000D02*
X124520000Y-121970000D01*
X123130000Y-121970000D02*
X123130000Y-121845000D01*
X124520000Y-121970000D02*
X124520000Y-121845000D01*
X123130000Y-121970000D02*
X123216724Y-121970000D01*
X124433276Y-121970000D02*
X124520000Y-121970000D01*
X123130000Y-121285000D02*
X123130000Y-120600000D01*
X123130000Y-120600000D02*
X123825000Y-120600000D01*
%TO.C,RV2*%
X158223000Y-73793000D02*
X158223000Y-78834000D01*
X148182000Y-73793000D02*
X148182000Y-78834000D01*
X158223000Y-78834000D02*
X154627000Y-78834000D01*
X151777000Y-78834000D02*
X148182000Y-78834000D01*
X149277000Y-73793000D02*
X148182000Y-73793000D01*
X158223000Y-73793000D02*
X157128000Y-73793000D01*
X154276000Y-73793000D02*
X152127000Y-73793000D01*
X154822000Y-75151000D02*
X154822000Y-78834000D01*
X151582000Y-75151000D02*
X151582000Y-78834000D01*
X154276000Y-73793000D02*
X152127000Y-73793000D01*
X154822000Y-78834000D02*
X154627000Y-78834000D01*
X151777000Y-78834000D02*
X151582000Y-78834000D01*
%TO.C,RV1*%
X136023000Y-101619000D02*
X141064000Y-101619000D01*
X136023000Y-111660000D02*
X141064000Y-111660000D01*
X141064000Y-101619000D02*
X141064000Y-105215000D01*
X141064000Y-108065000D02*
X141064000Y-111660000D01*
X136023000Y-110565000D02*
X136023000Y-111660000D01*
X136023000Y-101619000D02*
X136023000Y-102714000D01*
X136023000Y-105566000D02*
X136023000Y-107715000D01*
X137381000Y-105020000D02*
X141064000Y-105020000D01*
X137381000Y-108260000D02*
X141064000Y-108260000D01*
X136023000Y-105566000D02*
X136023000Y-107715000D01*
X141064000Y-105020000D02*
X141064000Y-105215000D01*
X141064000Y-108065000D02*
X141064000Y-108260000D01*
%TO.C,R3*%
X171296000Y-74708000D02*
X168556000Y-74708000D01*
X168556000Y-74708000D02*
X168556000Y-81248000D01*
X168556000Y-81248000D02*
X171296000Y-81248000D01*
X171296000Y-81248000D02*
X171296000Y-74708000D01*
X169926000Y-73938000D02*
X169926000Y-74708000D01*
X169926000Y-82018000D02*
X169926000Y-81248000D01*
%TO.C,R2*%
X162968000Y-81248000D02*
X165708000Y-81248000D01*
X165708000Y-81248000D02*
X165708000Y-74708000D01*
X165708000Y-74708000D02*
X162968000Y-74708000D01*
X162968000Y-74708000D02*
X162968000Y-81248000D01*
X164338000Y-82018000D02*
X164338000Y-81248000D01*
X164338000Y-73938000D02*
X164338000Y-74708000D01*
%TO.C,R1*%
X134334000Y-82650000D02*
X134334000Y-79910000D01*
X134334000Y-79910000D02*
X127794000Y-79910000D01*
X127794000Y-79910000D02*
X127794000Y-82650000D01*
X127794000Y-82650000D02*
X134334000Y-82650000D01*
X135104000Y-81280000D02*
X134334000Y-81280000D01*
X127024000Y-81280000D02*
X127794000Y-81280000D01*
%TO.C,LS1*%
X179788000Y-101104000D02*
X181908000Y-101104000D01*
X179788000Y-99044000D02*
X179788000Y-101104000D01*
X181908000Y-99044000D02*
X181908000Y-101104000D01*
X179788000Y-99044000D02*
X181908000Y-99044000D01*
X179788000Y-98044000D02*
X179788000Y-96984000D01*
X179788000Y-96984000D02*
X180848000Y-96984000D01*
%TO.C,C4*%
X172582000Y-99164000D02*
X169342000Y-99164000D01*
X172582000Y-96924000D02*
X169342000Y-96924000D01*
X172582000Y-99164000D02*
X172582000Y-99099000D01*
X172582000Y-96989000D02*
X172582000Y-96924000D01*
X169342000Y-99164000D02*
X169342000Y-99099000D01*
X169342000Y-96989000D02*
X169342000Y-96924000D01*
%TO.C,C3*%
X163714000Y-120038000D02*
X166954000Y-120038000D01*
X163714000Y-122278000D02*
X166954000Y-122278000D01*
X163714000Y-120038000D02*
X163714000Y-120103000D01*
X163714000Y-122213000D02*
X163714000Y-122278000D01*
X166954000Y-120038000D02*
X166954000Y-120103000D01*
X166954000Y-122213000D02*
X166954000Y-122278000D01*
%TO.C,C2*%
X130926000Y-114912000D02*
X127686000Y-114912000D01*
X130926000Y-112672000D02*
X127686000Y-112672000D01*
X130926000Y-114912000D02*
X130926000Y-114847000D01*
X130926000Y-112737000D02*
X130926000Y-112672000D01*
X127686000Y-114912000D02*
X127686000Y-114847000D01*
X127686000Y-112737000D02*
X127686000Y-112672000D01*
%TO.C,C1*%
X117498000Y-100446000D02*
X117498000Y-97206000D01*
X119738000Y-100446000D02*
X119738000Y-97206000D01*
X117498000Y-100446000D02*
X117563000Y-100446000D01*
X119673000Y-100446000D02*
X119738000Y-100446000D01*
X117498000Y-97206000D02*
X117563000Y-97206000D01*
X119673000Y-97206000D02*
X119738000Y-97206000D01*
%TO.C,Q1*%
D10*
X171481761Y-87030619D02*
X171386523Y-86983000D01*
X171291285Y-86887761D01*
X171148428Y-86744904D01*
X171053190Y-86697285D01*
X170957952Y-86697285D01*
X171005571Y-86935380D02*
X170910333Y-86887761D01*
X170815095Y-86792523D01*
X170767476Y-86602047D01*
X170767476Y-86268714D01*
X170815095Y-86078238D01*
X170910333Y-85983000D01*
X171005571Y-85935380D01*
X171196047Y-85935380D01*
X171291285Y-85983000D01*
X171386523Y-86078238D01*
X171434142Y-86268714D01*
X171434142Y-86602047D01*
X171386523Y-86792523D01*
X171291285Y-86887761D01*
X171196047Y-86935380D01*
X171005571Y-86935380D01*
X172386523Y-86935380D02*
X171815095Y-86935380D01*
X172100809Y-86935380D02*
X172100809Y-85935380D01*
X172005571Y-86078238D01*
X171910333Y-86173476D01*
X171815095Y-86221095D01*
%TO.C,J1*%
X111426666Y-103338380D02*
X111426666Y-104052666D01*
X111379047Y-104195523D01*
X111283809Y-104290761D01*
X111140952Y-104338380D01*
X111045714Y-104338380D01*
X112426666Y-104338380D02*
X111855238Y-104338380D01*
X112140952Y-104338380D02*
X112140952Y-103338380D01*
X112045714Y-103481238D01*
X111950476Y-103576476D01*
X111855238Y-103624095D01*
%TO.C,U1*%
X132842095Y-91908380D02*
X132842095Y-92717904D01*
X132889714Y-92813142D01*
X132937333Y-92860761D01*
X133032571Y-92908380D01*
X133223047Y-92908380D01*
X133318285Y-92860761D01*
X133365904Y-92813142D01*
X133413523Y-92717904D01*
X133413523Y-91908380D01*
X134413523Y-92908380D02*
X133842095Y-92908380D01*
X134127809Y-92908380D02*
X134127809Y-91908380D01*
X134032571Y-92051238D01*
X133937333Y-92146476D01*
X133842095Y-92194095D01*
%TO.C,U2*%
X152400095Y-85558380D02*
X152400095Y-86367904D01*
X152447714Y-86463142D01*
X152495333Y-86510761D01*
X152590571Y-86558380D01*
X152781047Y-86558380D01*
X152876285Y-86510761D01*
X152923904Y-86463142D01*
X152971523Y-86367904D01*
X152971523Y-85558380D01*
X153400095Y-85653619D02*
X153447714Y-85606000D01*
X153542952Y-85558380D01*
X153781047Y-85558380D01*
X153876285Y-85606000D01*
X153923904Y-85653619D01*
X153971523Y-85748857D01*
X153971523Y-85844095D01*
X153923904Y-85986952D01*
X153352476Y-86558380D01*
X153971523Y-86558380D01*
%TO.C,TP8*%
X170696095Y-103084380D02*
X171267523Y-103084380D01*
X170981809Y-104084380D02*
X170981809Y-103084380D01*
X171600857Y-104084380D02*
X171600857Y-103084380D01*
X171981809Y-103084380D01*
X172077047Y-103132000D01*
X172124666Y-103179619D01*
X172172285Y-103274857D01*
X172172285Y-103417714D01*
X172124666Y-103512952D01*
X172077047Y-103560571D01*
X171981809Y-103608190D01*
X171600857Y-103608190D01*
X172743714Y-103512952D02*
X172648476Y-103465333D01*
X172600857Y-103417714D01*
X172553238Y-103322476D01*
X172553238Y-103274857D01*
X172600857Y-103179619D01*
X172648476Y-103132000D01*
X172743714Y-103084380D01*
X172934190Y-103084380D01*
X173029428Y-103132000D01*
X173077047Y-103179619D01*
X173124666Y-103274857D01*
X173124666Y-103322476D01*
X173077047Y-103417714D01*
X173029428Y-103465333D01*
X172934190Y-103512952D01*
X172743714Y-103512952D01*
X172648476Y-103560571D01*
X172600857Y-103608190D01*
X172553238Y-103703428D01*
X172553238Y-103893904D01*
X172600857Y-103989142D01*
X172648476Y-104036761D01*
X172743714Y-104084380D01*
X172934190Y-104084380D01*
X173029428Y-104036761D01*
X173077047Y-103989142D01*
X173124666Y-103893904D01*
X173124666Y-103703428D01*
X173077047Y-103608190D01*
X173029428Y-103560571D01*
X172934190Y-103512952D01*
%TO.C,TP7*%
X180094095Y-88098380D02*
X180665523Y-88098380D01*
X180379809Y-89098380D02*
X180379809Y-88098380D01*
X180998857Y-89098380D02*
X180998857Y-88098380D01*
X181379809Y-88098380D01*
X181475047Y-88146000D01*
X181522666Y-88193619D01*
X181570285Y-88288857D01*
X181570285Y-88431714D01*
X181522666Y-88526952D01*
X181475047Y-88574571D01*
X181379809Y-88622190D01*
X180998857Y-88622190D01*
X181903619Y-88098380D02*
X182570285Y-88098380D01*
X182141714Y-89098380D01*
%TO.C,TP6*%
X174252095Y-70318380D02*
X174823523Y-70318380D01*
X174537809Y-71318380D02*
X174537809Y-70318380D01*
X175156857Y-71318380D02*
X175156857Y-70318380D01*
X175537809Y-70318380D01*
X175633047Y-70366000D01*
X175680666Y-70413619D01*
X175728285Y-70508857D01*
X175728285Y-70651714D01*
X175680666Y-70746952D01*
X175633047Y-70794571D01*
X175537809Y-70842190D01*
X175156857Y-70842190D01*
X176585428Y-70318380D02*
X176394952Y-70318380D01*
X176299714Y-70366000D01*
X176252095Y-70413619D01*
X176156857Y-70556476D01*
X176109238Y-70746952D01*
X176109238Y-71127904D01*
X176156857Y-71223142D01*
X176204476Y-71270761D01*
X176299714Y-71318380D01*
X176490190Y-71318380D01*
X176585428Y-71270761D01*
X176633047Y-71223142D01*
X176680666Y-71127904D01*
X176680666Y-70889809D01*
X176633047Y-70794571D01*
X176585428Y-70746952D01*
X176490190Y-70699333D01*
X176299714Y-70699333D01*
X176204476Y-70746952D01*
X176156857Y-70794571D01*
X176109238Y-70889809D01*
%TO.C,TP5*%
X162822095Y-88352380D02*
X163393523Y-88352380D01*
X163107809Y-89352380D02*
X163107809Y-88352380D01*
X163726857Y-89352380D02*
X163726857Y-88352380D01*
X164107809Y-88352380D01*
X164203047Y-88400000D01*
X164250666Y-88447619D01*
X164298285Y-88542857D01*
X164298285Y-88685714D01*
X164250666Y-88780952D01*
X164203047Y-88828571D01*
X164107809Y-88876190D01*
X163726857Y-88876190D01*
X165203047Y-88352380D02*
X164726857Y-88352380D01*
X164679238Y-88828571D01*
X164726857Y-88780952D01*
X164822095Y-88733333D01*
X165060190Y-88733333D01*
X165155428Y-88780952D01*
X165203047Y-88828571D01*
X165250666Y-88923809D01*
X165250666Y-89161904D01*
X165203047Y-89257142D01*
X165155428Y-89304761D01*
X165060190Y-89352380D01*
X164822095Y-89352380D01*
X164726857Y-89304761D01*
X164679238Y-89257142D01*
%TO.C,TP4*%
X147836095Y-80696380D02*
X148407523Y-80696380D01*
X148121809Y-81696380D02*
X148121809Y-80696380D01*
X148740857Y-81696380D02*
X148740857Y-80696380D01*
X149121809Y-80696380D01*
X149217047Y-80744000D01*
X149264666Y-80791619D01*
X149312285Y-80886857D01*
X149312285Y-81029714D01*
X149264666Y-81124952D01*
X149217047Y-81172571D01*
X149121809Y-81220190D01*
X148740857Y-81220190D01*
X150169428Y-81029714D02*
X150169428Y-81696380D01*
X149931333Y-80648761D02*
X149693238Y-81363047D01*
X150312285Y-81363047D01*
%TO.C,TP3*%
X148598095Y-118578380D02*
X149169523Y-118578380D01*
X148883809Y-119578380D02*
X148883809Y-118578380D01*
X149502857Y-119578380D02*
X149502857Y-118578380D01*
X149883809Y-118578380D01*
X149979047Y-118626000D01*
X150026666Y-118673619D01*
X150074285Y-118768857D01*
X150074285Y-118911714D01*
X150026666Y-119006952D01*
X149979047Y-119054571D01*
X149883809Y-119102190D01*
X149502857Y-119102190D01*
X150407619Y-118578380D02*
X151026666Y-118578380D01*
X150693333Y-118959333D01*
X150836190Y-118959333D01*
X150931428Y-119006952D01*
X150979047Y-119054571D01*
X151026666Y-119149809D01*
X151026666Y-119387904D01*
X150979047Y-119483142D01*
X150931428Y-119530761D01*
X150836190Y-119578380D01*
X150550476Y-119578380D01*
X150455238Y-119530761D01*
X150407619Y-119483142D01*
%TO.C,TP2*%
X136660095Y-118578380D02*
X137231523Y-118578380D01*
X136945809Y-119578380D02*
X136945809Y-118578380D01*
X137564857Y-119578380D02*
X137564857Y-118578380D01*
X137945809Y-118578380D01*
X138041047Y-118626000D01*
X138088666Y-118673619D01*
X138136285Y-118768857D01*
X138136285Y-118911714D01*
X138088666Y-119006952D01*
X138041047Y-119054571D01*
X137945809Y-119102190D01*
X137564857Y-119102190D01*
X138517238Y-118673619D02*
X138564857Y-118626000D01*
X138660095Y-118578380D01*
X138898190Y-118578380D01*
X138993428Y-118626000D01*
X139041047Y-118673619D01*
X139088666Y-118768857D01*
X139088666Y-118864095D01*
X139041047Y-119006952D01*
X138469619Y-119578380D01*
X139088666Y-119578380D01*
%TO.C,TP1*%
X122563095Y-118578380D02*
X123134523Y-118578380D01*
X122848809Y-119578380D02*
X122848809Y-118578380D01*
X123467857Y-119578380D02*
X123467857Y-118578380D01*
X123848809Y-118578380D01*
X123944047Y-118626000D01*
X123991666Y-118673619D01*
X124039285Y-118768857D01*
X124039285Y-118911714D01*
X123991666Y-119006952D01*
X123944047Y-119054571D01*
X123848809Y-119102190D01*
X123467857Y-119102190D01*
X124991666Y-119578380D02*
X124420238Y-119578380D01*
X124705952Y-119578380D02*
X124705952Y-118578380D01*
X124610714Y-118721238D01*
X124515476Y-118816476D01*
X124420238Y-118864095D01*
%TO.C,RV2*%
X145200761Y-73604380D02*
X144867428Y-73128190D01*
X144629333Y-73604380D02*
X144629333Y-72604380D01*
X145010285Y-72604380D01*
X145105523Y-72652000D01*
X145153142Y-72699619D01*
X145200761Y-72794857D01*
X145200761Y-72937714D01*
X145153142Y-73032952D01*
X145105523Y-73080571D01*
X145010285Y-73128190D01*
X144629333Y-73128190D01*
X145486476Y-72604380D02*
X145819809Y-73604380D01*
X146153142Y-72604380D01*
X146438857Y-72699619D02*
X146486476Y-72652000D01*
X146581714Y-72604380D01*
X146819809Y-72604380D01*
X146915047Y-72652000D01*
X146962666Y-72699619D01*
X147010285Y-72794857D01*
X147010285Y-72890095D01*
X146962666Y-73032952D01*
X146391238Y-73604380D01*
X147010285Y-73604380D01*
%TO.C,RV1*%
X138088761Y-113482380D02*
X137755428Y-113006190D01*
X137517333Y-113482380D02*
X137517333Y-112482380D01*
X137898285Y-112482380D01*
X137993523Y-112530000D01*
X138041142Y-112577619D01*
X138088761Y-112672857D01*
X138088761Y-112815714D01*
X138041142Y-112910952D01*
X137993523Y-112958571D01*
X137898285Y-113006190D01*
X137517333Y-113006190D01*
X138374476Y-112482380D02*
X138707809Y-113482380D01*
X139041142Y-112482380D01*
X139898285Y-113482380D02*
X139326857Y-113482380D01*
X139612571Y-113482380D02*
X139612571Y-112482380D01*
X139517333Y-112625238D01*
X139422095Y-112720476D01*
X139326857Y-112768095D01*
%TO.C,R3*%
X172553333Y-78176380D02*
X172220000Y-77700190D01*
X171981904Y-78176380D02*
X171981904Y-77176380D01*
X172362857Y-77176380D01*
X172458095Y-77224000D01*
X172505714Y-77271619D01*
X172553333Y-77366857D01*
X172553333Y-77509714D01*
X172505714Y-77604952D01*
X172458095Y-77652571D01*
X172362857Y-77700190D01*
X171981904Y-77700190D01*
X172886666Y-77176380D02*
X173505714Y-77176380D01*
X173172380Y-77557333D01*
X173315238Y-77557333D01*
X173410476Y-77604952D01*
X173458095Y-77652571D01*
X173505714Y-77747809D01*
X173505714Y-77985904D01*
X173458095Y-78081142D01*
X173410476Y-78128761D01*
X173315238Y-78176380D01*
X173029523Y-78176380D01*
X172934285Y-78128761D01*
X172886666Y-78081142D01*
%TO.C,R2*%
X161377333Y-78430380D02*
X161044000Y-77954190D01*
X160805904Y-78430380D02*
X160805904Y-77430380D01*
X161186857Y-77430380D01*
X161282095Y-77478000D01*
X161329714Y-77525619D01*
X161377333Y-77620857D01*
X161377333Y-77763714D01*
X161329714Y-77858952D01*
X161282095Y-77906571D01*
X161186857Y-77954190D01*
X160805904Y-77954190D01*
X161758285Y-77525619D02*
X161805904Y-77478000D01*
X161901142Y-77430380D01*
X162139238Y-77430380D01*
X162234476Y-77478000D01*
X162282095Y-77525619D01*
X162329714Y-77620857D01*
X162329714Y-77716095D01*
X162282095Y-77858952D01*
X161710666Y-78430380D01*
X162329714Y-78430380D01*
%TO.C,R1*%
X130897333Y-79192380D02*
X130564000Y-78716190D01*
X130325904Y-79192380D02*
X130325904Y-78192380D01*
X130706857Y-78192380D01*
X130802095Y-78240000D01*
X130849714Y-78287619D01*
X130897333Y-78382857D01*
X130897333Y-78525714D01*
X130849714Y-78620952D01*
X130802095Y-78668571D01*
X130706857Y-78716190D01*
X130325904Y-78716190D01*
X131849714Y-79192380D02*
X131278285Y-79192380D01*
X131564000Y-79192380D02*
X131564000Y-78192380D01*
X131468761Y-78335238D01*
X131373523Y-78430476D01*
X131278285Y-78478095D01*
%TO.C,LS1*%
X180205142Y-96210380D02*
X179728952Y-96210380D01*
X179728952Y-95210380D01*
X180490857Y-96162761D02*
X180633714Y-96210380D01*
X180871809Y-96210380D01*
X180967047Y-96162761D01*
X181014666Y-96115142D01*
X181062285Y-96019904D01*
X181062285Y-95924666D01*
X181014666Y-95829428D01*
X180967047Y-95781809D01*
X180871809Y-95734190D01*
X180681333Y-95686571D01*
X180586095Y-95638952D01*
X180538476Y-95591333D01*
X180490857Y-95496095D01*
X180490857Y-95400857D01*
X180538476Y-95305619D01*
X180586095Y-95258000D01*
X180681333Y-95210380D01*
X180919428Y-95210380D01*
X181062285Y-95258000D01*
X182014666Y-96210380D02*
X181443238Y-96210380D01*
X181728952Y-96210380D02*
X181728952Y-95210380D01*
X181633714Y-95353238D01*
X181538476Y-95448476D01*
X181443238Y-95496095D01*
%TO.C,H3*%
X180848095Y-120086380D02*
X180848095Y-119086380D01*
X180848095Y-119562571D02*
X181419523Y-119562571D01*
X181419523Y-120086380D02*
X181419523Y-119086380D01*
X181800476Y-119086380D02*
X182419523Y-119086380D01*
X182086190Y-119467333D01*
X182229047Y-119467333D01*
X182324285Y-119514952D01*
X182371904Y-119562571D01*
X182419523Y-119657809D01*
X182419523Y-119895904D01*
X182371904Y-119991142D01*
X182324285Y-120038761D01*
X182229047Y-120086380D01*
X181943333Y-120086380D01*
X181848095Y-120038761D01*
X181800476Y-119991142D01*
%TO.C,C4*%
X170795333Y-100651142D02*
X170747714Y-100698761D01*
X170604857Y-100746380D01*
X170509619Y-100746380D01*
X170366761Y-100698761D01*
X170271523Y-100603523D01*
X170223904Y-100508285D01*
X170176285Y-100317809D01*
X170176285Y-100174952D01*
X170223904Y-99984476D01*
X170271523Y-99889238D01*
X170366761Y-99794000D01*
X170509619Y-99746380D01*
X170604857Y-99746380D01*
X170747714Y-99794000D01*
X170795333Y-99841619D01*
X171652476Y-100079714D02*
X171652476Y-100746380D01*
X171414380Y-99698761D02*
X171176285Y-100413047D01*
X171795333Y-100413047D01*
%TO.C,C3*%
X165167333Y-124055142D02*
X165119714Y-124102761D01*
X164976857Y-124150380D01*
X164881619Y-124150380D01*
X164738761Y-124102761D01*
X164643523Y-124007523D01*
X164595904Y-123912285D01*
X164548285Y-123721809D01*
X164548285Y-123578952D01*
X164595904Y-123388476D01*
X164643523Y-123293238D01*
X164738761Y-123198000D01*
X164881619Y-123150380D01*
X164976857Y-123150380D01*
X165119714Y-123198000D01*
X165167333Y-123245619D01*
X165500666Y-123150380D02*
X166119714Y-123150380D01*
X165786380Y-123531333D01*
X165929238Y-123531333D01*
X166024476Y-123578952D01*
X166072095Y-123626571D01*
X166119714Y-123721809D01*
X166119714Y-123959904D01*
X166072095Y-124055142D01*
X166024476Y-124102761D01*
X165929238Y-124150380D01*
X165643523Y-124150380D01*
X165548285Y-124102761D01*
X165500666Y-124055142D01*
%TO.C,C2*%
X129139333Y-116399142D02*
X129091714Y-116446761D01*
X128948857Y-116494380D01*
X128853619Y-116494380D01*
X128710761Y-116446761D01*
X128615523Y-116351523D01*
X128567904Y-116256285D01*
X128520285Y-116065809D01*
X128520285Y-115922952D01*
X128567904Y-115732476D01*
X128615523Y-115637238D01*
X128710761Y-115542000D01*
X128853619Y-115494380D01*
X128948857Y-115494380D01*
X129091714Y-115542000D01*
X129139333Y-115589619D01*
X129520285Y-115589619D02*
X129567904Y-115542000D01*
X129663142Y-115494380D01*
X129901238Y-115494380D01*
X129996476Y-115542000D01*
X130044095Y-115589619D01*
X130091714Y-115684857D01*
X130091714Y-115780095D01*
X130044095Y-115922952D01*
X129472666Y-116494380D01*
X130091714Y-116494380D01*
%TO.C,C1*%
X118451333Y-102719142D02*
X118403714Y-102766761D01*
X118260857Y-102814380D01*
X118165619Y-102814380D01*
X118022761Y-102766761D01*
X117927523Y-102671523D01*
X117879904Y-102576285D01*
X117832285Y-102385809D01*
X117832285Y-102242952D01*
X117879904Y-102052476D01*
X117927523Y-101957238D01*
X118022761Y-101862000D01*
X118165619Y-101814380D01*
X118260857Y-101814380D01*
X118403714Y-101862000D01*
X118451333Y-101909619D01*
X119403714Y-102814380D02*
X118832285Y-102814380D01*
X119118000Y-102814380D02*
X119118000Y-101814380D01*
X119022761Y-101957238D01*
X118927523Y-102052476D01*
X118832285Y-102100095D01*
%TO.C,H1*%
X111887095Y-70412380D02*
X111887095Y-69412380D01*
X111887095Y-69888571D02*
X112458523Y-69888571D01*
X112458523Y-70412380D02*
X112458523Y-69412380D01*
X113458523Y-70412380D02*
X112887095Y-70412380D01*
X113172809Y-70412380D02*
X113172809Y-69412380D01*
X113077571Y-69555238D01*
X112982333Y-69650476D01*
X112887095Y-69698095D01*
%TO.C,H2*%
X180848095Y-70793380D02*
X180848095Y-69793380D01*
X180848095Y-70269571D02*
X181419523Y-70269571D01*
X181419523Y-70793380D02*
X181419523Y-69793380D01*
X181848095Y-69888619D02*
X181895714Y-69841000D01*
X181990952Y-69793380D01*
X182229047Y-69793380D01*
X182324285Y-69841000D01*
X182371904Y-69888619D01*
X182419523Y-69983857D01*
X182419523Y-70079095D01*
X182371904Y-70221952D01*
X181800476Y-70793380D01*
X182419523Y-70793380D01*
%TO.C,H4*%
X110363095Y-120323380D02*
X110363095Y-119323380D01*
X110363095Y-119799571D02*
X110934523Y-119799571D01*
X110934523Y-120323380D02*
X110934523Y-119323380D01*
X111839285Y-119656714D02*
X111839285Y-120323380D01*
X111601190Y-119275761D02*
X111363095Y-119990047D01*
X111982142Y-119990047D01*
%TD*%
M02*
